#N canvas 102 63 1425 383 10;
#X obj 689 255 inlet;
#N canvas 341 380 469 247 \$0-gui 1;
#X obj 19 21 nbx 5 14 0 1e+37 0 0 \$0-freq.s \$0-freq.r freq(hz) 0
-8 0 10 -262144 -1 -1 40 256;
#X obj 89 21 nbx 5 14 0 1 0 0 \$0-phase.s \$0-phase.r phase 0 -8 0
10 -262144 -1 -1 0 256;
#X obj 19 53 nbx 5 14 -1e+37 1e+37 0 0 \$0-gain.s \$0-gain.r gain(dB)
0 -8 0 10 -262144 -1 -1 -999 256;
#X obj 89 53 nbx 5 14 -1e+37 1e+37 0 0 \$0-dc.s \$0-dc.r dc 0 -8 0
10 -262144 -1 -1 0 256;
#X obj 19 85 nbx 5 14 -1 1 0 0 \$0-fb.s \$0-fb.r fb 0 -8 0 10 -262144
-1 -1 0 256;
#X obj 89 85 nbx 5 14 -1 1 0 0 \$0-pw.s \$0-pw.r pw 0 -8 0 10 -262144
-1 -1 0 256;
#X obj 165 20 vradio 15 1 0 7 \$0-rwf.s \$0-rwf.r waveform 0 -8 0 10
-262144 -1 -1 0;
#X text 184 18 sin;
#X text 184 32 pulse;
#X text 184 48 square;
#X text 184 63 triangle;
#X text 184 78 trisaw;
#X text 184 93 lfnoise;
#X text 184 109 impulse;
#X obj 19 140 bng 15 250 50 0 \$0-reset.s \$0-reset.r reset 17 7 0
10 -262144 -1 -1;
#X obj 19 160 bng 15 250 50 0 \$0-dump.s \$0-dump.r dump 17 7 0 10
-262144 -1 -1;
#X restore 1163 20 pd \$0-gui;
#N canvas 0 50 450 300 \$0-r 0;
#X obj 14 33 route sin pulse square triangle trisaw lfnoise impulse
;
#X msg 14 56 0;
#X obj 14 79 s \$0-rwf.r;
#X msg 59 56 1;
#X msg 105 56 2;
#X msg 151 56 3;
#X msg 197 56 4;
#X msg 243 56 5;
#X msg 289 56 6;
#X obj 15 122 r \$0-rwf.s;
#X obj 15 170 route 0 1 2 3 4 5 6, f 42;
#X msg 15 193 sin;
#X msg 45 193 pulse;
#X msg 85 193 square;
#X msg 135 193 triangle;
#X msg 196 193 trisaw;
#X msg 246 193 lfnoise;
#X msg 303 193 impulse;
#X obj 15 216 s \$0-waveform.r;
#X obj 14 9 r \$0-waveform.r;
#X obj 15 145 change;
#X obj 108 102 s \$0-waveform.s;
#X connect 0 0 1 0;
#X connect 0 1 3 0;
#X connect 0 2 4 0;
#X connect 0 3 5 0;
#X connect 0 4 6 0;
#X connect 0 5 7 0;
#X connect 0 6 8 0;
#X connect 1 0 2 0;
#X connect 3 0 2 0;
#X connect 4 0 2 0;
#X connect 5 0 2 0;
#X connect 6 0 2 0;
#X connect 7 0 2 0;
#X connect 8 0 2 0;
#X connect 9 0 20 0;
#X connect 10 0 11 0;
#X connect 10 1 12 0;
#X connect 10 2 13 0;
#X connect 10 3 14 0;
#X connect 10 4 15 0;
#X connect 10 5 16 0;
#X connect 10 6 17 0;
#X connect 11 0 18 0;
#X connect 12 0 18 0;
#X connect 13 0 18 0;
#X connect 14 0 18 0;
#X connect 15 0 18 0;
#X connect 16 0 18 0;
#X connect 17 0 18 0;
#X connect 19 0 0 0;
#X connect 19 0 21 0;
#X connect 20 0 10 0;
#X restore 1163 49 pd \$0-r;
#X obj 689 278 esdf/args.route0 freq phase gain dc fb pw waveform reset
dump;
#X obj 1163 78 else/click;
#X msg 1163 101 vis 1;
#X obj 1163 124 s pd-\$0-gui;
#X obj 12 133 inlet~;
#X obj 12 287 esdf/osc~, f 79;
#X obj 12 84 r \$0-freq.s;
#X obj 12 107 sig~;
#X obj 92 133 inlet~;
#X obj 92 84 r \$0-phase.s;
#X obj 92 107 else/float2sig~ 5;
#X obj 212 133 inlet~;
#X obj 212 107 else/float2sig~ 5;
#X obj 212 54 r \$0-gain.s;
#X obj 212 77 else/db2lin;
#X obj 332 133 inlet~;
#X obj 332 107 else/float2sig~ 5;
#X obj 332 84 r \$0-dc.s;
#X obj 452 133 inlet~;
#X obj 452 107 else/float2sig~ 5;
#X obj 452 84 r \$0-fb.s;
#X obj 572 133 inlet~;
#X obj 572 107 else/float2sig~ 5;
#X obj 572 84 r \$0-pw.s;
#X obj 21 203 r \$0-waveform.r;
#X obj 171 203 r \$0-reset.s;
#X msg 171 226 reset;
#X obj 12 310 outlet~;
#X obj 736 255 esdf/mount \$1;
#X obj 736 186 r \$0-dump.s;
#X obj 736 209 esdf/msg.dump;
#X obj 736 232 esdf/states;
#X obj 21 226 list prepend waveform;
#X obj 21 249 list trim;
#X obj 847 57 esdf/state.param \$0 freq;
#X obj 847 77 esdf/state.param \$0 phase;
#X obj 847 97 esdf/state.param \$0 gain;
#X obj 847 117 esdf/state.param \$0 dc;
#X obj 847 137 esdf/state.param \$0 fb;
#X obj 847 157 esdf/state.param \$0 pw;
#X obj 847 177 esdf/state.param \$0 waveform;
#X obj 1068 304 canvasargs;
#X obj 1068 327 esdf/args.init null waveform freq phase gain dc fb
pw;
#X obj 1068 280 del 0;
#X obj 1068 166 else/initmess bang \; \$0-freq.r 440 \; \$0-phase.r
0 \; \$0-gain.r -999 \; \$0-dc.r 0 \; \$0-fb.r 0 \; \$0-pw.r 0 \; \$0-waveform.r
sin \;;
#X obj 514 313 outlet;
#X connect 0 0 3 0;
#X connect 4 0 5 0;
#X connect 5 0 6 0;
#X connect 7 0 8 0;
#X connect 8 0 30 0;
#X connect 9 0 10 0;
#X connect 10 0 8 0;
#X connect 11 0 8 1;
#X connect 12 0 13 0;
#X connect 13 0 8 1;
#X connect 14 0 8 2;
#X connect 15 0 8 2;
#X connect 16 0 17 0;
#X connect 17 0 15 0;
#X connect 18 0 8 3;
#X connect 19 0 8 3;
#X connect 20 0 19 0;
#X connect 21 0 8 4;
#X connect 22 0 8 4;
#X connect 23 0 22 0;
#X connect 24 0 8 5;
#X connect 25 0 8 5;
#X connect 26 0 25 0;
#X connect 27 0 35 0;
#X connect 28 0 29 0;
#X connect 29 0 8 0;
#X connect 31 0 3 0;
#X connect 32 0 33 0;
#X connect 33 0 34 0;
#X connect 33 1 31 0;
#X connect 34 0 31 0;
#X connect 34 0 48 0;
#X connect 35 0 36 0;
#X connect 36 0 8 0;
#X connect 37 0 34 0;
#X connect 38 0 34 0;
#X connect 39 0 34 0;
#X connect 40 0 34 0;
#X connect 41 0 34 0;
#X connect 42 0 34 0;
#X connect 43 0 34 0;
#X connect 44 0 45 0;
#X connect 45 0 3 0;
#X connect 46 0 44 0;
#X connect 47 0 46 0;
