#N canvas 177 128 1149 490 10;
#X obj 12 11 esdf/dsp~;
#X obj 14 139 mtl/scope~;
#X obj 566 44 esdf/preset.prepare;
#X msg 566 67 freq 440 \, phase 0 \, gain -6 \, dc 0 \, fb 0 \, pw
0 \, waveform impulse \,;
#X msg 491 21 dump;
#X obj 491 44 s osc.s;
#X obj 566 21 r osc.r;
#X obj 696 44 s osc.s;
#X obj 368 139 mtl/spectrogram~;
#X obj 93 67 phasor~ 1;
#X obj 14 116 esdf/a00~ osc sin 90;
#X obj 93 90 *~ -0.1;
#X text 167 8 a00~: oscillator;
#X text 166 30 args: mountpoint waveform freq phase gain dc fb pw;
#X text 166 50 in: freq phase gain dc fb pw;
#X text 166 74 in0 msg: waveform \, reset;
#X connect 2 0 3 0;
#X connect 3 0 7 0;
#X connect 4 0 5 0;
#X connect 6 0 2 0;
#X connect 9 0 11 0;
#X connect 10 0 1 0;
#X connect 10 0 8 0;
#X connect 11 0 10 4;
