#N canvas 506 216 895 469 10;
#X obj 17 58 else/timed.gate~;
#X obj 17 251 else/lag2~;
#X obj 62 108 r \$0-rfb.s;
#X obj 62 131 else/float2sig~ 5;
#X obj 62 154 *~;
#X obj 110 35 r \$0-gate.s;
#X obj 46 180 r \$0-rise.s;
#X obj 46 203 else/float2sig~ 5;
#X obj 182 131 else/float2sig~ 5;
#X obj 182 154 *~;
#X obj 166 203 else/float2sig~ 5;
#X obj 182 108 r \$0-ffb.s;
#X obj 166 180 r \$0-fall.s;
#X obj 197 35 tabreceive~ \$0-tint;
#X obj 17 334 outlet~;
#X obj 39 297 tabsend~ \$0-tint;
#X obj 17 365 block~ 1;
#X obj 17 393 array define \$0-tint 1;
#N canvas 675 556 287 148 \$0-gui 0;
#X obj 24 38 nbx 5 14 0 1e+37 0 0 \$0-gate.s \$0-gate.r gate 0 -8 0
10 -262144 -1 -1 5 256;
#X obj 94 38 nbx 5 14 0 1e+37 0 0 \$0-rise.s \$0-rise.r rise 0 -8 0
10 -262144 -1 -1 5 256;
#X obj 164 38 nbx 5 14 0 1e+37 0 0 \$0-fall.s \$0-fall.r fall 0 -8
0 10 -262144 -1 -1 100 256;
#X obj 24 74 nbx 5 14 -1e+37 1e+37 0 0 \$0-rfb.s \$0-rfb.r r.fb 0 -8
0 10 -262144 -1 -1 0 256;
#X obj 94 74 nbx 5 14 -1e+37 1e+37 0 0 \$0-ffb.s \$0-ffb.r f.fb 0 -8
0 10 -262144 -1 -1 0 256;
#X obj 164 73 bng 15 250 50 0 \$0-dump.s \$0-dump.r dump 17 7 0 10
-262144 -1 -1;
#X restore 759 25 pd \$0-gui;
#X obj 759 54 else/click;
#X msg 759 77 vis 1;
#X obj 759 100 s pd-\$0-gui;
#X obj 536 39 r \$0-dump.s;
#X obj 536 62 esdf/msg.dump;
#X obj 536 85 esdf/states;
#X obj 536 108 esdf/mount \$1;
#X obj 467 110 inlet;
#X obj 467 133 esdf/args.route0 rise fall gate rfb ffb dump;
#X obj 531 181 else/initmess bang \; \$0-rise.r 5 \; \$0-fall.r 100
\; \$0-gate.r 5 \;;
#X obj 531 243 del 0;
#X obj 531 266 canvasargs;
#X obj 531 289 esdf/args.init null rise fall gate rfb ffb;
#X obj 530 321 r _global/dump;
#X obj 530 344 s \$0-dump.r;
#X obj 672 182 esdf/state.param \$0 rise;
#X obj 672 202 esdf/state.param \$0 fall;
#X obj 672 222 esdf/state.param \$0 gate;
#X obj 672 242 esdf/state.param \$0 rfb;
#X obj 672 262 esdf/state.param \$0 ffb;
#X obj 166 226 +~;
#X obj 46 226 +~;
#X obj 17 35 inlet;
#X obj 181 335 outlet;
#X connect 0 0 1 0;
#X connect 1 0 14 0;
#X connect 1 0 15 0;
#X connect 2 0 3 0;
#X connect 3 0 4 0;
#X connect 4 0 40 1;
#X connect 5 0 0 1;
#X connect 6 0 7 0;
#X connect 7 0 40 0;
#X connect 8 0 9 0;
#X connect 9 0 39 1;
#X connect 10 0 39 0;
#X connect 11 0 8 0;
#X connect 12 0 10 0;
#X connect 13 0 4 1;
#X connect 13 0 9 1;
#X connect 19 0 20 0;
#X connect 20 0 21 0;
#X connect 22 0 23 0;
#X connect 23 0 24 0;
#X connect 23 1 25 0;
#X connect 24 0 25 0;
#X connect 24 0 42 0;
#X connect 25 0 27 0;
#X connect 26 0 27 0;
#X connect 28 0 29 0;
#X connect 29 0 30 0;
#X connect 30 0 31 0;
#X connect 31 0 27 0;
#X connect 32 0 33 0;
#X connect 34 0 24 0;
#X connect 35 0 24 0;
#X connect 36 0 24 0;
#X connect 37 0 24 0;
#X connect 38 0 24 0;
#X connect 39 0 1 2;
#X connect 40 0 1 1;
#X connect 41 0 0 0;
