#N canvas 359 150 627 539 10;
#X obj 12 6 esdf/dsp~;
#X obj 23 82 bng 15 250 50 0 empty empty empty 17 7 0 10 -262144 -1
-1;
#X obj 23 128 *~;
#X obj 57 35 noise~;
#X obj 291 21 r del.r;
#X obj 291 44 esdf/preset.prepare;
#X msg 291 67 fb 0.9 \, delay 0.5 \,;
#X obj 341 21 s del.s;
#X obj 23 244 mtl/spectrogram~;
#X obj 321 99 tgl 15 0 empty empty empty 17 7 0 10 -262144 -1 -1 0
1;
#X obj 321 119 sig~;
#X obj 382 371 dac~;
#X obj 382 244 esdf/gain~ 0 -18;
#X obj 72 133 adc~;
#X obj 436 53 s del.s;
#X obj 506 53 s del.s;
#X obj 378 103 esdf/a00~ 0 sin 5 0 -12 14;
#X obj 23 171 esdf/a02.mavg2~ del 20 -0.8;
#X obj 203 171 esdf/a02.mavg2~ del 20 -0.8;
#X msg 506 30 fb 0.3;
#X obj 57 59 iemlib/hp4_butt~ 9000 0.707;
#X obj 23 105 else/envgen~ 0 1 1 15 0 -retrigger 3;
#X obj 57 82 iemlib/lp4_butt~ 14000 0.707;
#X msg 436 30 delay 3;
#X obj 142 14 esdf/clock 0 120 0.1 1;
#X connect 1 0 21 0;
#X connect 2 0 17 0;
#X connect 2 0 18 0;
#X connect 3 0 20 0;
#X connect 4 0 5 0;
#X connect 5 0 6 0;
#X connect 6 0 7 0;
#X connect 9 0 10 0;
#X connect 10 0 17 3;
#X connect 10 0 18 3;
#X connect 12 0 11 0;
#X connect 12 1 11 1;
#X connect 13 0 17 0;
#X connect 13 1 18 0;
#X connect 16 0 17 1;
#X connect 16 0 18 1;
#X connect 17 0 8 0;
#X connect 17 0 12 0;
#X connect 18 0 12 1;
#X connect 19 0 15 0;
#X connect 20 0 22 0;
#X connect 21 0 2 0;
#X connect 22 0 2 1;
#X connect 23 0 14 0;
#X connect 24 0 1 0;
