#N canvas 49 328 1478 360 10;
#X obj 47 37 inlet~;
#X obj 114 61 inlet~;
#X obj 17 215 +~;
#X obj 277 24 r \$0-fb.s;
#X obj 33 187 *~;
#X obj 17 248 outlet~;
#X obj 594 61 inlet~;
#X obj 594 129 selector~ 2;
#X obj 657 102 expr~ copysign(1 \, $v1);
#X obj 17 114 ==~ 0;
#X obj 17 138 selector~ 2;
#X obj 594 84 +~ 1;
#X obj 782 218 inlet;
#X obj 97 12 r \$0-delay.s;
#X obj 98 90 +~;
#X obj 137 127 delread4~ \$0-del 1;
#X obj 69 288 delwrite~ \$0-del 1000;
#N canvas 750 377 284 113 \$0-gui 0;
#X obj 10 26 nbx 5 14 -1 1 0 0 \$0-fb.s \$0-fb.r fb 0 -8 0 10 -262144
-1 -1 -0.98 256;
#X obj 10 57 nbx 5 14 -1e+37 1e+37 0 0 \$0-delay.s \$0-delay.r delay
0 -8 0 10 -262144 -1 -1 4.29034 256;
#X obj 172 22 bng 15 250 50 0 \$0-dump.s \$0-dump.r dump 17 7 0 10
-262144 -1 -1;
#X obj 80 26 nbx 5 14 0 22000 0 0 \$0-lpf.s \$0-lpf.r lpf 0 -8 0 10
-262144 -1 -1 900 256;
#X obj 80 57 nbx 5 14 0 1 0 0 \$0-q.s \$0-q.r q 0 -8 0 10 -262144 -1
-1 0.707 256;
#X restore 1235 50 pd \$0-gui;
#X obj 839 131 r \$0-dump.s;
#X obj 839 154 esdf/msg.dump;
#X obj 839 177 esdf/states;
#X obj 839 200 esdf/mount \$1;
#X obj 839 305 outlet;
#X obj 935 92 esdf/state.param \$0 fb;
#X obj 935 112 esdf/state.param \$0 delay;
#X obj 1235 154 del 0;
#X obj 1235 177 canvasargs;
#X obj 1235 231 else/click;
#X msg 1235 254 vis 1;
#X obj 1235 277 s pd-\$0-gui;
#X obj 208 24 inlet~;
#X obj 208 47 esdf/affine~;
#X obj 209 69 clip~ -1 1;
#X obj 348 24 inlet~;
#X obj 348 47 esdf/affine~;
#X obj 417 24 r \$0-lpf.s;
#X obj 69 265 iemlib/vcf_lp2~;
#X obj 495 24 inlet~;
#X obj 495 47 esdf/affine~;
#X obj 564 24 r \$0-q.s;
#X obj 1235 200 esdf/args.init null delay fb lpf q;
#X obj 782 240 esdf/args.route0 fb delay dump lpf q;
#X obj 935 72 esdf/state.param \$0 lpf;
#X obj 935 52 esdf/state.param \$0 q;
#X obj 495 70 max~ 0.1;
#X obj 1235 79 else/initmess bang \; \$0-fb.r 0 \; \$0-delay.r 0 \;
\$0-lpf.r 8000 \; \$0-q.r 0.707 \;;
#X obj 97 35 else/float2sig~ 1;
#X connect 0 0 10 1;
#X connect 1 0 14 1;
#X connect 2 0 36 0;
#X connect 3 0 31 2;
#X connect 4 0 2 1;
#X connect 6 0 9 0;
#X connect 6 0 11 0;
#X connect 7 0 4 0;
#X connect 8 0 7 2;
#X connect 9 0 10 0;
#X connect 10 0 2 0;
#X connect 11 0 7 0;
#X connect 12 0 41 0;
#X connect 13 0 46 0;
#X connect 14 0 15 0;
#X connect 15 0 4 1;
#X connect 18 0 19 0;
#X connect 19 0 20 0;
#X connect 19 1 21 0;
#X connect 20 0 21 0;
#X connect 20 0 22 0;
#X connect 21 0 41 0;
#X connect 23 0 20 0;
#X connect 24 0 20 0;
#X connect 25 0 26 0;
#X connect 26 0 40 0;
#X connect 27 0 28 0;
#X connect 28 0 29 0;
#X connect 30 0 31 0;
#X connect 31 0 32 0;
#X connect 32 0 8 0;
#X connect 32 0 7 1;
#X connect 33 0 34 0;
#X connect 34 0 36 1;
#X connect 35 0 34 2;
#X connect 36 0 16 0;
#X connect 36 0 5 0;
#X connect 37 0 38 0;
#X connect 38 0 44 0;
#X connect 39 0 38 2;
#X connect 40 0 41 0;
#X connect 42 0 20 0;
#X connect 43 0 20 0;
#X connect 44 0 36 2;
#X connect 45 0 25 0;
#X connect 46 0 14 0;
