#N canvas 178 65 1146 396 10;
#X obj 47 37 inlet~;
#X obj 114 61 inlet~;
#X obj 17 215 +~;
#X obj 257 24 r \$0-fb.s;
#X obj 33 187 *~;
#X obj 17 248 outlet~;
#X obj 384 61 inlet~;
#X obj 384 129 selector~ 2;
#X obj 447 102 expr~ copysign(1 \, $v1);
#X obj 17 114 ==~ 0;
#X obj 17 138 selector~ 2;
#X obj 384 84 +~ 1;
#X obj 548 129 inlet;
#X obj 97 12 r \$0-delay.s;
#X obj 97 35 sig~;
#X obj 98 90 +~;
#X obj 137 127 delread4~ \$0-del 1;
#X obj 69 248 delwrite~ \$0-del 1000;
#N canvas 576 379 284 113 \$0-gui 0;
#X obj 10 26 nbx 5 14 -1 1 0 0 \$0-fb.s \$0-fb.r fb 0 -8 0 10 -262144
-1 -1 0 256;
#X obj 10 57 nbx 5 14 -1e+37 1e+37 0 0 \$0-delay.s \$0-delay.r delay
0 -8 0 10 -262144 -1 -1 0 256;
#X obj 102 22 bng 15 250 50 0 \$0-dump.s \$0-dump.r dump 17 7 0 10
-262144 -1 -1;
#X restore 902 18 pd \$0-gui;
#X obj 548 151 esdf/args.route0 fb delay dump;
#X obj 605 42 r \$0-dump.s;
#X obj 605 65 esdf/msg.dump;
#X obj 605 88 esdf/states;
#X obj 605 111 esdf/mount \$1;
#X obj 231 247 outlet;
#X obj 701 13 esdf/state.param \$0 fb;
#X obj 701 33 esdf/state.param \$0 delay;
#X obj 781 93 else/initmess bang \; \$0-fb.r 0 \; \$0-delay.r 0 \;
;
#X obj 781 142 del 0;
#X obj 781 165 canvasargs;
#X obj 781 188 esdf/args.init null delay fb;
#X obj 781 236 else/click;
#X msg 781 259 vis 1;
#X obj 781 282 s pd-\$0-gui;
#X obj 188 24 inlet~;
#X obj 188 47 esdf/affine~;
#X obj 189 69 clip~ -1 1;
#X connect 0 0 10 1;
#X connect 1 0 15 1;
#X connect 2 0 17 0;
#X connect 2 0 5 0;
#X connect 3 0 35 2;
#X connect 4 0 2 1;
#X connect 6 0 9 0;
#X connect 6 0 11 0;
#X connect 7 0 4 0;
#X connect 8 0 7 2;
#X connect 9 0 10 0;
#X connect 10 0 2 0;
#X connect 11 0 7 0;
#X connect 12 0 19 0;
#X connect 13 0 14 0;
#X connect 14 0 15 0;
#X connect 15 0 16 0;
#X connect 16 0 4 1;
#X connect 20 0 21 0;
#X connect 21 0 22 0;
#X connect 21 1 23 0;
#X connect 22 0 23 0;
#X connect 22 0 24 0;
#X connect 23 0 19 0;
#X connect 25 0 22 0;
#X connect 26 0 22 0;
#X connect 27 0 28 0;
#X connect 28 0 29 0;
#X connect 29 0 30 0;
#X connect 30 0 19 0;
#X connect 31 0 32 0;
#X connect 32 0 33 0;
#X connect 34 0 35 0;
#X connect 35 0 36 0;
#X connect 36 0 8 0;
#X connect 36 0 7 1;
