#N canvas 357 387 400 234 10;
#X floatatom 24 36 5 0 0 0 - - -;
#X floatatom 24 111 5 0 0 0 - - -;
#X floatatom 72 36 5 0 0 0 - - -;
#X floatatom 122 36 5 0 0 0 - - -;
#X text 21 157 affine transformation: out = in_0 * in_1 + in_2;
#X obj 24 88 esdf/affine 2;
#X text 21 174 args: mult(1) const(0);
#X connect 0 0 5 0;
#X connect 2 0 5 1;
#X connect 3 0 5 2;
#X connect 5 0 1 0;
