#N canvas 587 280 510 429 10;
#X text 155 117 args: mult(1) const(0);
#X obj 24 141 mtl/scope~;
#X obj 8 7 esdf/dsp~;
#X obj 24 88 osc~ 50;
#X floatatom 73 59 5 0 0 0 - - -;
#X floatatom 123 59 5 0 0 0 - - -;
#X text 155 100 affine transformation: out[n] = in_0[n] * in_1 + in_2
;
#X obj 24 118 esdf/affinedb~ -3;
#X connect 3 0 7 0;
#X connect 4 0 7 1;
#X connect 5 0 7 2;
#X connect 7 0 1 0;
