#N canvas 157 140 471 266 10;
#X obj 34 82 inlet~;
#X obj 34 167 *~;
#X obj 34 190 +~;
#X obj 34 213 outlet~;
#X obj 249 13 loadbang;
#X obj 249 59 esdf/args.init mul dc;
#X obj 249 82 route mul dc;
#X obj 249 36 canvasargs;
#X obj 84 72 inlet;
#X obj 134 52 inlet;
#X obj 134 111 f;
#X obj 84 135 f;
#X obj 84 180 else/float2sig~ 5;
#X obj 134 134 else/float2sig~ 5;
#X obj 84 158 else/db2lin;
#X connect 0 0 1 0;
#X connect 1 0 2 0;
#X connect 2 0 3 0;
#X connect 4 0 7 0;
#X connect 5 0 6 0;
#X connect 6 0 11 0;
#X connect 6 1 10 0;
#X connect 7 0 5 0;
#X connect 8 0 11 0;
#X connect 9 0 10 0;
#X connect 10 0 13 0;
#X connect 11 0 14 0;
#X connect 12 0 1 1;
#X connect 13 0 2 1;
#X connect 14 0 12 0;
