#N canvas 369 273 600 414 10;
#X obj 35 106 inlet;
#X obj 115 46 inlet;
#X obj 195 46 inlet;
#X obj 35 222 + 0;
#X obj 35 245 outlet;
#X obj 292 20 loadbang;
#X obj 292 43 canvasargs;
#X obj 35 199 * 1;
#X obj 115 69 t b f;
#X obj 195 69 t b f;
#X obj 292 66 esdf/args.init mul dc;
#X obj 292 89 route mul dc;
#X obj 35 129 route float;
#X obj 98 153 route mul dc;
#X connect 0 0 12 0;
#X connect 1 0 8 0;
#X connect 2 0 9 0;
#X connect 3 0 4 0;
#X connect 5 0 6 0;
#X connect 6 0 10 0;
#X connect 7 0 3 0;
#X connect 8 0 7 0;
#X connect 8 1 7 1;
#X connect 9 0 3 0;
#X connect 9 1 3 1;
#X connect 10 0 11 0;
#X connect 11 0 8 0;
#X connect 11 1 9 0;
#X connect 12 0 7 0;
#X connect 12 1 13 0;
#X connect 13 0 7 1;
#X connect 13 1 3 1;
