#N canvas 707 308 728 409 10;
#X obj 22 27 inlet;
#X obj 422 21 initbang;
#X obj 422 74 canvasargs;
#X obj 422 127 t a b;
#X msg 493 74 set 0;
#X obj 491 150 counter;
#X obj 422 177 list prepend;
#X obj 422 203 list trim;
#X obj 422 226 coll;
#C restore;
#X msg 68 73 set 0;
#X obj 422 44 t b b;
#X obj 22 125 counter;
#X obj 422 251 zexy/pack;
#X obj 22 97 t b a;
#X obj 422 97 drip;
#X obj 22 50 t a b;
#X obj 22 73 drip;
#X obj 422 274 list trim;
#X obj 422 297 outlet;
#X connect 0 0 15 0;
#X connect 1 0 10 0;
#X connect 2 0 14 0;
#X connect 3 0 6 0;
#X connect 3 1 5 0;
#X connect 4 0 5 0;
#X connect 5 0 6 1;
#X connect 6 0 7 0;
#X connect 7 0 8 0;
#X connect 8 0 12 0;
#X connect 9 0 11 0;
#X connect 10 0 2 0;
#X connect 10 1 4 0;
#X connect 11 0 8 0;
#X connect 12 0 17 0;
#X connect 13 0 11 0;
#X connect 13 1 12 1;
#X connect 14 0 3 0;
#X connect 15 0 16 0;
#X connect 15 1 9 0;
#X connect 16 0 13 0;
#X connect 17 0 18 0;
