#N canvas 664 284 919 406 10;
#X declare -path zexy -lib zexy;
#X obj 29 60 inlet;
#N canvas 207 615 266 266 \$0-route 0;
#X obj 10 10 inlet;
#X obj 90 10 outlet;
#X restore 29 87 pd \$0-route;
#N canvas 666 253 823 493 gen 0;
#X obj 37 37 inlet;
#X obj 320 117 list trim;
#X obj 234 439 s pd-\$0-route;
#X obj 320 94 list prepend obj 10 32 route;
#X obj 320 140 t b a;
#X obj 82 94 iemguts/canvasdollarzero 2;
#X obj 37 143 t b a;
#X obj 37 93 drip;
#X obj 376 22 declare -path zexy -lib zexy;
#X obj 37 268 list append;
#X obj 37 166 counter 0 100;
#X msg -9 120 set 0;
#X obj 37 60 t a b b a;
#X obj 37 291 t a a;
#X obj 37 245 pack f f f, f 16;
#X obj 281 190 list length;
#X obj 37 189 expr $f1 + 3 \; ($f1 * 22) + 76 \; $f1;
#X msg 320 165 connect 0 0 2 0;
#X msg 281 213 connect 2 \$1 1 0;
#X obj 281 66 t a a;
#X msg 37 343 connect 2 \$3 \$1 0;
#X obj 37 120 pack s s;
#X msg 64 318 obj 10 \$2 s \$5-\$4.r;
#X connect 0 0 12 0;
#X connect 1 0 4 0;
#X connect 3 0 1 0;
#X connect 4 0 17 0;
#X connect 4 1 2 0;
#X connect 5 0 21 1;
#X connect 6 0 10 0;
#X connect 6 1 9 1;
#X connect 7 0 21 0;
#X connect 9 0 13 0;
#X connect 10 0 16 0;
#X connect 11 0 10 0;
#X connect 12 0 7 0;
#X connect 12 1 5 0;
#X connect 12 2 11 0;
#X connect 12 3 19 0;
#X connect 13 0 20 0;
#X connect 13 1 22 0;
#X connect 14 0 9 0;
#X connect 15 0 18 0;
#X connect 16 0 14 0;
#X connect 16 1 14 1;
#X connect 16 2 14 2;
#X connect 17 0 2 0;
#X connect 18 0 2 0;
#X connect 19 0 15 0;
#X connect 19 1 3 0;
#X connect 20 0 2 0;
#X connect 21 0 6 0;
#X connect 22 0 2 0;
#X restore 202 88 pd gen;
#X obj 202 65 canvasargs;
#X obj 319 36 bng 15 250 50 0 empty empty empty 17 7 0 10 -262144 -1
-1;
#X msg 319 56 list asdf esdf;
#X obj 29 110 outlet;
#X obj 202 42 initbang;
#X connect 0 0 1 0;
#X connect 1 0 6 0;
#X connect 3 0 2 0;
#X connect 4 0 5 0;
#X connect 5 0 2 0;
#X connect 7 0 3 0;
