#N canvas 168 372 855 435 10;
#X obj 144 65 bang~;
#X obj 24 46 inlet~;
#X obj 25 97 tabsend~ \$0-tbl;
#X obj 144 96 tabminmax \$0-tbl;
#X obj 386 57 tgl 15 0 empty empty empty 17 7 0 10 -262144 -1 -1 1
1;
#X obj 386 13 loadbang;
#X obj 478 13 bng 15 250 50 0 empty empty empty 17 7 0 10 -262144 -1
-1;
#X obj 253 135 unpack f f;
#X obj 285 195 f 0;
#X obj 24 71 abs~;
#X obj 253 160 t f b;
#X obj 253 285 moses;
#X obj 307 231 t f f;
#X obj 307 285 outlet;
#X obj 285 16 inlet;
#X msg 285 41 0;
#X obj 307 256 change;
#X obj 386 78 switch~ 64 1 1;
#X obj 386 103 table \$0-tbl 64;
#X connect 0 0 3 0;
#X connect 1 0 9 0;
#X connect 3 1 7 0;
#X connect 4 0 17 0;
#X connect 5 0 4 0;
#X connect 6 0 4 0;
#X connect 7 0 10 0;
#X connect 8 0 12 0;
#X connect 9 0 2 0;
#X connect 10 0 11 0;
#X connect 10 1 8 0;
#X connect 11 1 8 1;
#X connect 12 0 16 0;
#X connect 12 1 11 1;
#X connect 14 0 15 0;
#X connect 15 0 8 0;
#X connect 16 0 13 0;
