#N canvas 479 275 653 365 10;
#X obj 28 44 inlet~;
#X obj 123 44 inlet;
#X obj 123 67 expr max($f1 \, 1);
#X obj 28 135 *~;
#X obj 28 112 +~ 0.5;
#X obj 28 158 expr~ fmod($v1 \, 1) - 0.5;
#X obj 28 261 outlet~;
#X obj 55 192 clock2bang~;
#X obj 55 215 outlet;
#X obj 387 72 del 0;
#X obj 387 95 canvasargs;
#X obj 387 118 esdf/args.init mult;
#X obj 387 36 else/initmess bang \; \$0-mult 1 \;;
#X obj 387 141 route mult;
#X obj 387 164 s \$0-mult;
#X obj 164 44 r \$0-mult;
#X connect 0 0 4 0;
#X connect 1 0 2 0;
#X connect 2 0 3 1;
#X connect 3 0 5 0;
#X connect 4 0 3 0;
#X connect 5 0 6 0;
#X connect 5 0 7 0;
#X connect 7 0 8 0;
#X connect 9 0 10 0;
#X connect 10 0 11 0;
#X connect 11 0 13 0;
#X connect 12 0 9 0;
#X connect 13 0 14 0;
#X connect 15 0 2 0;
