#N canvas 264 190 1025 552 10;
#X obj 319 176 inlet;
#X obj 319 199 esdf/args.route0 reset bpm on dump;
#X obj 417 92 r \$0-dump.s;
#X obj 417 115 esdf/msg.dump;
#X obj 417 138 esdf/states;
#X obj 417 161 esdf/mount \$1;
#X obj 532 48 esdf/state.param \$0 on;
#X obj 532 68 esdf/state.param \$0 bpm;
#X obj 125 133 nbx 5 14 0 1e+37 0 0 \$0-bpm.s \$0-bpm.r bpm 0 -8 0
10 -262144 -1 -1 120 256;
#X obj 105 132 tgl 15 0 \$0-on.s \$0-on.r on 0 -7 0 10 -262144 -1 -1
0 1;
#X obj 277 245 outlet;
#X obj 710 118 else/initmess bang \; \$0-on.r 0 \; \$0-bpm.r 120 \;
;
#X obj 710 167 del 0;
#X obj 710 190 canvasargs;
#X obj 710 213 esdf/args.init null bpm on;
#X obj 20 145 r \$0-on.s;
#X obj 20 191 route 0 1;
#X obj 20 267 sig~;
#X obj 184 132 bng 15 250 50 0 \$0-reset.s \$0-reset.r reset 0 -7 0
10 -262144 -1 -1;
#X obj 220 132 bng 15 250 50 0 \$0-dump.s \$0-dump.r dump 0 -7 0 10
-262144 -1 -1;
#X msg 20 244 0;
#X obj 72 243 f;
#X obj 129 178 r \$0-bpm.s;
#X obj 129 250 spigot;
#X obj 20 168 t f f;
#X obj 129 227 t b f;
#X obj 23 295 phasor~ -2;
#X obj 129 201 expr -1*$f1/60;
#X obj 73 450 outlet;
#X obj 23 479 outlet~;
#X obj 237 179 r \$0-reset.s;
#X msg 237 202 0;
#X obj 73 427 clock2bang~;
#X obj 23 318 -~ 0.5;
#X connect 0 0 1 0;
#X connect 2 0 3 0;
#X connect 3 0 4 0;
#X connect 3 1 5 0;
#X connect 4 0 5 0;
#X connect 4 0 10 0;
#X connect 5 0 1 0;
#X connect 6 0 4 0;
#X connect 7 0 4 0;
#X connect 11 0 12 0;
#X connect 12 0 13 0;
#X connect 13 0 14 0;
#X connect 14 0 1 0;
#X connect 15 0 24 0;
#X connect 16 0 20 0;
#X connect 16 1 21 0;
#X connect 17 0 26 0;
#X connect 20 0 17 0;
#X connect 21 0 17 0;
#X connect 22 0 27 0;
#X connect 23 0 21 0;
#X connect 24 0 16 0;
#X connect 24 1 23 1;
#X connect 25 0 23 0;
#X connect 25 1 21 1;
#X connect 26 0 33 0;
#X connect 27 0 25 0;
#X connect 30 0 31 0;
#X connect 31 0 26 1;
#X connect 32 0 28 0;
#X connect 33 0 29 0;
#X connect 33 0 32 0;
#X coords 0 -1 1 1 148 52 1 100 100;
