#N canvas 693 444 526 339 10;
#X obj 27 29 inlet~;
#X obj 26 62 z~;
#X obj 26 131 bng 15 250 50 0 empty empty empty 17 7 0 10 -262144 -1
-1;
#X obj 26 151 outlet;
#X obj 26 85 expr~ if($v1 <= 0 && $v2 >= 0 \, 1 \, 0);
#X obj 26 108 threshold~ 0.5 0 0.5 0;
#X connect 0 0 1 0;
#X connect 0 0 4 1;
#X connect 1 0 4 0;
#X connect 2 0 3 0;
#X connect 4 0 5 0;
#X connect 5 0 2 0;
