#N canvas 121 331 593 366 10;
#X obj 19 20 inlet;
#X obj 19 46 cyclone/coll;
#C restore;
#X obj 19 69 else/break |;
#X obj 19 92 route |;
#X obj 19 115 outlet;
#X obj 261 23 loadbang;
#X obj 261 46 canvasargs;
#X obj 261 69 esdf/args.init name;
#X obj 261 92 route name;
#X obj 261 115 esdf/msg.tag refer;
#X obj 192 163 else/click;
#X msg 192 186 open;
#X connect 0 0 1 0;
#X connect 1 0 2 0;
#X connect 2 0 3 0;
#X connect 3 0 4 0;
#X connect 3 1 4 0;
#X connect 5 0 6 0;
#X connect 6 0 7 0;
#X connect 7 0 8 0;
#X connect 8 0 9 0;
#X connect 9 0 1 0;
#X connect 10 0 11 0;
#X connect 11 0 1 0;
