#N canvas 523 42 824 666 10;
#X obj 413 114 inlet;
#X obj 25 58 route float;
#X obj 106 58 route float;
#X obj 541 395 del 0;
#X obj 541 418 canvasargs;
#X obj 389 14 r \$0-dump.s;
#X obj 389 37 esdf/msg.dump;
#X obj 389 60 esdf/states;
#X obj 389 83 esdf/mount \$1;
#X obj 541 268 r _global/dump;
#X obj 541 291 s \$0-dump.r;
#X text 688 573 TODO: fix clips;
#X obj 193 35 r \$0-min.s;
#X msg 193 58 min \$1;
#X obj 25 24 r \$0->.s;
#X obj 106 24 r \$0-<.s;
#X obj 541 179 esdf/state.param \$0 min;
#X obj 541 219 esdf/state.param \$0 name;
#X obj 44 298 r \$0-name.s;
#X obj 25 452 outlet;
#X obj 115 400 outlet;
#X obj 25 209 t f f f;
#X obj 165 400 outlet;
#X obj 215 400 outlet;
#X obj 44 234 s \$0-counter.r;
#X obj 605 46 else/click;
#X obj 605 92 s pd-\$0-gui;
#N canvas 658 268 450 300 \$0-gui 0;
#X obj 12 20 nbx 5 14 0 1e+37 0 0 \$0-min.s \$0-min.r min 0 -8 0 10
-262144 -1 -1 0 256;
#X obj 82 20 nbx 5 14 1 1e+37 0 0 \$0-size.s \$0-size.r size 0 -8 0
10 -262144 -1 -1 32 256;
#X obj 152 20 nbx 5 14 0 1e+37 0 0 \$0-goto.s \$0-goto.r jump 0 -8
0 10 -262144 -1 -1 0 256;
#X symbolatom 12 55 32 0 0 2 coll_name #0-_name.r #0-name.s;
#X obj 12 96 nbx 5 14 -1e+37 1e+37 0 0 \$0-counter.s \$0-counter.r
counter 0 -8 0 10 -262144 -1 -1 0 256;
#X obj 82 96 nbx 5 14 0 1e+37 0 0 \$0->.s \$0->.r > 0 -8 0 10 -262144
-1 -1 0 256;
#X obj 152 96 nbx 5 14 0 1e+37 0 0 \$0-<.s \$0-<.r < 0 -8 0 10 -262144
-1 -1 0 256;
#X obj 12 128 bng 15 250 50 0 \$0-dump.s \$0-dump.r dump 17 7 0 10
-262144 -1 -1;
#X obj 82 128 bng 15 250 50 0 \$0-open.s \$0-open.r open_coll 17 7
0 10 -262144 -1 -1;
#X restore 605 17 pd \$0-gui;
#X msg 605 69 vis 1;
#X obj 123 275 r \$0-open.s;
#X msg 123 298 open;
#X obj 401 285 r \$0-name.r;
#X obj 401 308 symbol;
#X obj 401 331 s \$0-_name.r;
#X obj 413 161 route bang;
#X obj 25 400 else/break |;
#X obj 25 423 route |;
#X obj 25 353 cyclone/coll;
#C flags 1 0;
#C restore;
#X obj 541 199 esdf/state.param \$0 size;
#X obj 413 137 esdf/args.route0 > < goto start min size dump open name
;
#X obj 25 185 esdf/ccc 0 32;
#X msg 263 58 size \$1;
#X obj 263 35 r \$0-size.s;
#X msg 25 81 > \$1;
#X msg 106 81 < \$1;
#X obj 44 321 esdf/msg.tag refer;
#X obj 77 117 r \$0-start.s;
#X msg 77 140 start;
#X obj 177 117 r \$0-goto.s;
#X msg 177 140 goto \$1;
#X obj 541 441 esdf/args.init null min size;
#X obj 541 332 else/initmess bang \; \$0-min.r 0 \; \$0-size.r 32 \;
;
#X obj 413 184 bng 15 250 50 0 empty empty empty 17 7 0 10 -262144
-1 -1;
#X connect 0 0 39 0;
#X connect 1 0 43 0;
#X connect 2 0 44 0;
#X connect 3 0 4 0;
#X connect 4 0 50 0;
#X connect 5 0 6 0;
#X connect 6 0 7 0;
#X connect 6 1 8 0;
#X connect 7 0 8 0;
#X connect 8 0 39 0;
#X connect 9 0 10 0;
#X connect 12 0 13 0;
#X connect 13 0 40 0;
#X connect 14 0 1 0;
#X connect 15 0 2 0;
#X connect 16 0 7 0;
#X connect 17 0 7 0;
#X connect 18 0 45 0;
#X connect 21 0 37 0;
#X connect 21 1 24 0;
#X connect 21 2 20 0;
#X connect 25 0 28 0;
#X connect 28 0 26 0;
#X connect 29 0 30 0;
#X connect 30 0 37 0;
#X connect 31 0 32 0;
#X connect 32 0 33 0;
#X connect 34 0 52 0;
#X connect 35 0 36 0;
#X connect 36 0 19 0;
#X connect 36 1 19 0;
#X connect 37 0 35 0;
#X connect 38 0 7 0;
#X connect 39 0 34 0;
#X connect 40 0 21 0;
#X connect 41 0 40 0;
#X connect 42 0 41 0;
#X connect 43 0 40 0;
#X connect 44 0 40 0;
#X connect 45 0 37 0;
#X connect 46 0 47 0;
#X connect 47 0 40 0;
#X connect 48 0 49 0;
#X connect 49 0 40 0;
#X connect 50 0 39 0;
#X connect 51 0 3 0;
#X connect 52 0 40 0;
