#N canvas 483 321 650 389 10;
#X msg 35 36 Gb 2 1;
#X obj 35 59 esdf/deals01;
#X obj 35 82 print A;
#X obj 104 82 print B;
#X msg 35 12 Ab 1;
#X connect 0 0 1 0;
#X connect 1 0 2 0;
#X connect 1 1 3 0;
#X connect 4 0 1 0;
