#N canvas 477 296 614 394 10;
#X obj 27 45 inlet;
#X obj 27 117 esdf/note2midi;
#X obj 27 140 outlet;
#X obj 96 140 outlet;
#X obj 27 68 list split 2;
#X obj 27 91 list trim;
#X connect 0 0 4 0;
#X connect 1 0 2 0;
#X connect 4 0 5 0;
#X connect 4 1 3 0;
#X connect 5 0 1 0;
