#N canvas 294 136 693 414 10;
#X obj 15 20 esdf/dsp~;
#X obj 15 133 mtl/scope~;
#X obj 15 86 vline~;
#X msg 15 63 0 0 \, 1 50 0 \, 0 50 50;
#X obj 15 110 esdf/deals04~ -4 4;
#X connect 2 0 4 0;
#X connect 3 0 2 0;
#X connect 4 0 1 0;
