#N canvas 650 321 450 300 10;
#X obj 20 22 inlet~;
#X obj 20 106 outlet~;
#X obj 81 106 outlet~;
#X obj 20 79 cos~;
#X obj 81 81 else/sin~;
#X connect 0 0 3 0;
#X connect 0 0 4 0;
#X connect 3 0 1 0;
#X connect 4 0 2 0;
