#N canvas 283 249 614 372 10;
#X obj 20 22 inlet;
#X obj 119 70 else/pi;
#X obj 20 95 expr tan($f1*$f2);
#X obj 119 23 else/initmess 2;
#X obj 119 46 t b f;
#X obj 20 141 expr sqrt(1 + pow($f1 \, 2));
#X obj 20 118 t f f;
#X obj 20 164 expr -1/$f1 \; $f2/$f1;
#X obj 20 200 pack f f;
#X obj 20 223 outlet;
#X floatatom 62 33 5 0 0 0 - - -;
#X obj 20 71 t f b;
#X connect 0 0 11 0;
#X connect 1 0 2 1;
#X connect 2 0 6 0;
#X connect 3 0 4 0;
#X connect 4 0 1 0;
#X connect 4 1 1 1;
#X connect 5 0 7 0;
#X connect 6 0 5 0;
#X connect 6 1 7 1;
#X connect 7 0 8 0;
#X connect 7 1 8 1;
#X connect 8 0 9 0;
#X connect 10 0 11 0;
#X connect 11 0 2 0;
#X connect 11 1 3 0;
