#N canvas 686 409 795 438 10;
#X obj 292 45 canvasargs;
#X obj 292 68 list length;
#X obj 292 91 > 0;
#X obj 292 114 sel 0;
#X msg 292 137 table required;
#X obj 292 160 canvaserror;
#X obj 292 22 initbang;
#X obj 512 10 array define \$0-s-plane 1025;
#X obj 512 35 array define \$0-convolved-spectrum 1025;
#X obj 512 86 array define \$0-s-plane-im 2048;
#X obj 512 61 array define \$0-cepstrum-real 1025;
#X obj 512 112 array define \$0-minphase-im 1025;
#X obj 512 138 array define \$0-minphase-real 1025;
#X obj 39 72 bng 15 250 50 0 empty empty empty 17 7 0 10 -262144 -1
-1;
#X obj 39 17 inlet;
#X obj 39 375 outlet;
#X text 84 375 done;
#N canvas 92 160 306 296 z-to-s-plane 0;
#X obj 28 26 inlet;
#X obj 28 218 log;
#X obj 158 249 outlet;
#X text 203 249 done;
#X obj 28 249 tabwrite \$0-s-plane;
#X obj 28 63 t b b;
#X obj 28 127 t f f;
#X obj 28 101 iemlib/for++ 0 1024;
#X text 85 25 compute natural logarithms;
#X obj 28 156 tabread \$0-convolved-spectrum;
#X connect 0 0 5 0;
#X connect 1 0 4 0;
#X connect 5 0 7 0;
#X connect 6 0 9 0;
#X connect 6 1 4 1;
#X connect 7 0 6 0;
#X connect 7 1 2 0;
#X connect 9 0 1 0;
#X restore 39 138 pd z-to-s-plane;
#N canvas 18 430 341 252 s-plane-to-cepstrum 0;
#X obj 14 17 inlet;
#X obj 49 212 tabwrite~ \$0-cepstrum-real;
#X obj 14 40 bng 15 250 50 0 empty empty empty 17 7 0 10 -262144 -1
-1;
#X obj 49 109 rifft~;
#X obj 49 141 /~ 2048;
#X obj 123 22 block~ 2048;
#X obj 219 212 outlet;
#X text 269 210 done;
#X obj 49 79 tabplay~ \$0-s-plane;
#X connect 0 0 2 0;
#X connect 2 0 1 0;
#X connect 2 0 8 0;
#X connect 3 0 4 0;
#X connect 4 0 1 0;
#X connect 8 0 3 0;
#X connect 8 1 6 0;
#X restore 39 168 pd s-plane-to-cepstrum;
#N canvas 234 421 468 244 signum 0;
#X obj 19 30 inlet;
#X obj 19 102 t f f;
#X obj 19 189 tabwrite \$0-cepstrum-real;
#X obj 19 128 tabread \$0-cepstrum-real;
#X obj 19 157 * -1;
#X obj 192 189 outlet;
#X text 242 187 done;
#X text 197 37 Flip the sign of left cepstrum half.;
#X obj 19 72 iemlib/for++ 0 1023;
#X connect 0 0 8 0;
#X connect 1 0 3 0;
#X connect 1 1 2 1;
#X connect 3 0 4 0;
#X connect 4 0 2 0;
#X connect 8 0 1 0;
#X connect 8 1 5 0;
#X restore 39 225 pd signum;
#N canvas 26 148 454 334 s-to-z-plane 0;
#X obj 21 29 inlet;
#X obj 21 270 tabwrite \$0-minphase-real;
#X obj 21 127 t f f f;
#X obj 36 214 cos;
#X obj 21 239 *;
#X obj 21 62 bng 15 250 50 0 empty empty empty 17 7 0 10 -262144 -1
-1;
#X obj 253 126 t f f f;
#X obj 253 238 *;
#X obj 253 270 tabwrite \$0-minphase-im;
#X obj 268 213 sin;
#X obj 132 301 outlet;
#X text 175 301 done;
#X obj 36 186 tabread \$0-s-plane-im;
#X obj 268 186 tabread \$0-s-plane-im;
#X obj 21 89 iemlib/for++ 0 1024;
#X obj 21 153 tabread \$0-convolved-spectrum;
#X obj 253 156 tabread \$0-convolved-spectrum;
#X connect 0 0 5 0;
#X connect 2 0 15 0;
#X connect 2 1 12 0;
#X connect 2 2 1 1;
#X connect 3 0 4 1;
#X connect 4 0 1 0;
#X connect 5 0 14 0;
#X connect 6 0 16 0;
#X connect 6 1 13 0;
#X connect 6 2 8 1;
#X connect 7 0 8 0;
#X connect 9 0 7 1;
#X connect 12 0 3 0;
#X connect 13 0 9 0;
#X connect 14 0 2 0;
#X connect 14 0 6 0;
#X connect 14 1 10 0;
#X connect 15 0 4 0;
#X connect 16 0 7 0;
#X restore 39 283 pd s-to-z-plane;
#N canvas 556 315 664 441 convolve-spectrum 0;
#X obj 35 19 inlet;
#X msg 244 147 0;
#X obj 259 235 + 1;
#X obj 244 175 t f f f;
#X obj 244 288 +;
#X obj 444 175 t f f f;
#X obj 444 286 +;
#X msg 444 147 1024;
#X obj 52 136 - 1;
#X obj 67 190 + 1;
#X obj 52 238 +;
#X obj 35 309 +;
#X obj 52 260 * 0.5;
#X obj 35 335 * 0.5;
#X obj 104 393 outlet;
#X obj 35 76 for++ 1 1023;
#X obj 35 104 t f f f f;
#X obj 35 365 tabwrite \$0-convolved-spectrum;
#X obj 35 46 t b b;
#X obj 244 315 * 0.5;
#X obj 244 342 tabwrite \$0-convolved-spectrum;
#X obj 444 341 tabwrite \$0-convolved-spectrum;
#X obj 444 312 * 0.5;
#X text 149 392 done;
#X text 190 27 convolve spectrum with lo pass filter (Fourier transform
of Hann window);
#X obj 459 235 - 1;
#X obj 52 161 tabread \$1;
#X obj 67 214 tabread \$1;
#X obj 35 284 tabread \$1;
#X obj 259 259 tabread \$1;
#X obj 244 200 tabread \$1;
#X obj 444 200 tabread \$1;
#X obj 459 259 tabread \$1;
#X connect 0 0 18 0;
#X connect 1 0 3 0;
#X connect 2 0 29 0;
#X connect 3 0 30 0;
#X connect 3 1 2 0;
#X connect 3 2 20 1;
#X connect 4 0 19 0;
#X connect 5 0 31 0;
#X connect 5 1 25 0;
#X connect 5 2 21 1;
#X connect 6 0 22 0;
#X connect 7 0 5 0;
#X connect 8 0 26 0;
#X connect 9 0 27 0;
#X connect 10 0 12 0;
#X connect 11 0 13 0;
#X connect 12 0 11 1;
#X connect 13 0 17 0;
#X connect 15 0 16 0;
#X connect 15 1 14 0;
#X connect 16 0 28 0;
#X connect 16 1 8 0;
#X connect 16 2 9 0;
#X connect 16 3 17 1;
#X connect 18 0 15 0;
#X connect 18 1 1 0;
#X connect 18 1 7 0;
#X connect 19 0 20 0;
#X connect 22 0 21 0;
#X connect 25 0 32 0;
#X connect 26 0 10 0;
#X connect 27 0 10 1;
#X connect 28 0 11 0;
#X connect 29 0 4 1;
#X connect 30 0 4 0;
#X connect 31 0 6 0;
#X connect 32 0 6 1;
#X restore 39 101 pd convolve-spectrum;
#N canvas 37 222 322 266 cepstrum-to-s-plane 0;
#X obj 24 41 inlet;
#X obj 67 138 tabplay~ \$0-cepstrum-real;
#X obj 46 166 fft~;
#X obj 24 70 bng 15 250 50 0 empty empty empty 17 7 0 10 -262144 -1
-1;
#X obj 151 91 block~ 2048;
#X text 258 225 done;
#X obj 214 225 outlet;
#X text 73 41 Rotation by i.;
#X obj 46 225 tabwrite~ \$0-s-plane-im;
#X connect 0 0 3 0;
#X connect 1 0 2 1;
#X connect 1 1 6 0;
#X connect 2 0 8 0;
#X connect 3 0 1 0;
#X connect 3 0 8 0;
#X restore 39 254 pd cepstrum-to-s-plane;
#N canvas 89 56 308 307 window 0;
#X obj 33 42 inlet;
#X obj 33 260 tabwrite \$0-cepstrum-real;
#X obj 33 126 tabread \$0-cepstrum-real;
#X obj 206 260 outlet;
#X text 253 262 done;
#X obj 33 70 iemlib/for++ 0 2047;
#X obj 33 97 t f f f;
#X obj 33 228 *;
#X obj 48 153 + 1024;
#X obj 48 178 & 2047;
#X obj 48 203 tabread \$0-Hann;
#X connect 0 0 5 0;
#X connect 2 0 7 0;
#X connect 5 0 6 0;
#X connect 5 1 3 0;
#X connect 6 0 2 0;
#X connect 6 1 8 0;
#X connect 6 2 1 1;
#X connect 7 0 1 0;
#X connect 8 0 9 0;
#X connect 9 0 10 0;
#X connect 10 0 7 1;
#X restore 39 197 pd window;
#N canvas 24 573 273 231 z-plane-to-IR 1;
#X obj 12 33 inlet;
#X obj 29 73 tabplay~ \$0-minphase-real;
#X obj 62 98 tabplay~ \$0-minphase-im;
#X obj 29 125 rifft~;
#X obj 122 33 block~ 2048;
#X obj 176 191 outlet;
#X text 222 192 done;
#X obj 12 191 tabwrite~ \$2;
#X obj 29 156 /~ 2048;
#X connect 0 0 1 0;
#X connect 0 0 2 0;
#X connect 0 0 7 0;
#X connect 1 0 3 0;
#X connect 1 1 5 0;
#X connect 2 0 3 1;
#X connect 3 0 8 0;
#X connect 8 0 7 0;
#X restore 39 315 pd z-plane-to-IR;
#X obj 39 43 cyclone/speedlim 200;
#N canvas 256 254 440 311 Hann-window 0;
#X obj 21 171 cos;
#X obj 21 147 * 6.28318;
#X obj 21 91 t f f;
#X obj 21 195 * -0.5;
#X obj 21 221 + 0.5;
#X obj 21 32 loadbang;
#X obj 21 251 tabwrite \$0-Hann;
#X obj 21 116 / 2048;
#X obj 83 33 bng 15 250 50 0 empty empty empty 17 7 0 10 -262144 -1
-1;
#X obj 21 62 iemlib/for++ 0 2047;
#N canvas 0 22 450 300 (subpatch) 0;
#X array \$0-Hann 2048 float 0;
#X coords 0 1 2048 0 200 140 1;
#X restore 181 128 graph;
#X connect 0 0 3 0;
#X connect 1 0 0 0;
#X connect 2 0 7 0;
#X connect 2 1 6 1;
#X connect 3 0 4 0;
#X connect 4 0 6 0;
#X connect 5 0 9 0;
#X connect 7 0 1 0;
#X connect 8 0 9 0;
#X connect 9 0 2 0;
#X restore 513 166 pd Hann-window;
#X connect 0 0 1 0;
#X connect 1 0 2 0;
#X connect 2 0 3 0;
#X connect 3 0 4 0;
#X connect 4 0 5 0;
#X connect 6 0 0 0;
#X connect 13 0 21 0;
#X connect 14 0 25 0;
#X connect 17 0 18 0;
#X connect 18 0 23 0;
#X connect 19 0 22 0;
#X connect 20 0 24 0;
#X connect 21 0 17 0;
#X connect 22 0 20 0;
#X connect 23 0 19 0;
#X connect 24 0 15 0;
#X connect 25 0 13 0;
