#N canvas 132 29 1364 701 10;
#X text 53 303 dsp;
#X obj 115 305 nbx 2 13 -1e+37 1e+37 0 0 \$0-cpu.s \$0-cpu.r cpu -20
7 0 10 -262144 -1 -1 1.56 256;
#X obj 76 305 tgl 13 0 \$0-dsp.s \$0-dsp.r empty 17 7 0 10 -262144
-1 -1 0 1;
#X obj 200 376 iemlib/dsp~;
#X obj 200 399 s \$0-cpu.r;
#X obj 200 253 r \$0-dsp.s;
#X obj 208 136 loadbang;
#X obj 50 163 r pd;
#X obj 50 186 route dsp;
#X msg 50 232 set \$1;
#X obj 50 255 s \$0-dsp.r;
#X obj 154 137 bang~;
#X msg 154 160 1;
#X obj 50 209 change -1;
#X msg 200 276 \; pd dsp \$1;
#X obj 208 187 tgl 15 0 empty empty empty 17 7 0 10 -262144 -1 -1 0
1;
#X obj 208 210 switch~;
#X connect 3 0 4 0;
#X connect 5 0 14 0;
#X connect 6 0 15 0;
#X connect 7 0 8 0;
#X connect 8 0 13 0;
#X connect 9 0 10 0;
#X connect 11 0 12 0;
#X connect 11 0 15 0;
#X connect 12 0 13 0;
#X connect 13 0 9 0;
#X connect 15 0 16 0;
#X coords 0 -1 1 1 98 23 2 50 300;
