#N canvas 299 165 918 616 10;
#N canvas 383 247 427 296 dsp 0;
#X obj 36 47 inlet~;
#X obj 84 47 inlet~;
#X obj 37 103 else/balance~, f 16;
#X obj 159 70 else/float2sig~ 10;
#X obj 37 186 *~;
#X obj 130 186 *~;
#X obj 159 146 else/float2sig~ 10;
#X obj 37 209 outlet~;
#X obj 130 209 outlet~;
#N canvas 497 152 662 462 meter 0;
#X obj 23 96 inlet~;
#X obj 243 96 inlet~;
#X obj 23 119 peakenv~ 300;
#X obj 253 119 peakenv~ 300;
#X obj 23 142 snapshot~;
#X obj 253 142 snapshot~;
#X obj 23 165 else/lin2db;
#X obj 253 165 else/lin2db;
#X obj 23 13 loadbang;
#X obj 23 36 metro 150;
#X obj 53 278 esdf/block.maxpeak~;
#X obj 243 278 esdf/block.maxpeak~;
#X obj 53 301 else/lin2db;
#X obj 243 301 else/lin2db;
#X obj 164 13 r \$0-reset.s;
#X obj 164 36 t b b;
#X obj 23 59 t b b;
#N canvas 0 50 393 312 ccc 0;
#X msg 38 221 label \$1dBFS;
#X obj 137 114 t b f;
#X obj 176 114 t b f;
#X msg 203 150 color 0 0 -1.67117e+07;
#X obj 38 91 t b f;
#X msg 18 151 color 0 0 -1;
#X obj 38 68 moses -12;
#X msg 137 190 color 0 0 -1;
#N canvas 761 238 450 300 digits 0;
#X obj 31 24 inlet;
#X obj 31 103 outlet;
#X obj 31 57 expr 0.01*trunc($f1*100);
#X connect 0 0 2 0;
#X connect 2 0 1 0;
#X restore 38 42 pd digits;
#X obj 38 18 inlet;
#X obj 38 254 outlet;
#X obj 137 91 moses -1;
#X connect 0 0 10 0;
#X connect 1 0 7 0;
#X connect 1 1 0 0;
#X connect 2 0 3 0;
#X connect 2 1 0 0;
#X connect 3 0 10 0;
#X connect 4 0 5 0;
#X connect 4 1 0 0;
#X connect 5 0 10 0;
#X connect 6 0 4 0;
#X connect 6 1 11 0;
#X connect 7 0 10 0;
#X connect 8 0 6 0;
#X connect 9 0 8 0;
#X connect 11 0 1 0;
#X connect 11 1 2 0;
#X restore 23 187 pd ccc;
#N canvas 0 50 393 312 ccc 0;
#X msg 38 221 label \$1dBFS;
#X obj 137 114 t b f;
#X obj 176 114 t b f;
#X msg 203 150 color 0 0 -1.67117e+07;
#X obj 38 91 t b f;
#X msg 18 151 color 0 0 -1;
#X obj 38 68 moses -12;
#X msg 137 190 color 0 0 -1;
#N canvas 761 238 450 300 digits 0;
#X obj 31 24 inlet;
#X obj 31 103 outlet;
#X obj 31 57 expr 0.01*trunc($f1*100);
#X connect 0 0 2 0;
#X connect 2 0 1 0;
#X restore 38 42 pd digits;
#X obj 38 18 inlet;
#X obj 38 254 outlet;
#X obj 137 91 moses -1;
#X connect 0 0 10 0;
#X connect 1 0 7 0;
#X connect 1 1 0 0;
#X connect 2 0 3 0;
#X connect 2 1 0 0;
#X connect 3 0 10 0;
#X connect 4 0 5 0;
#X connect 4 1 0 0;
#X connect 5 0 10 0;
#X connect 6 0 4 0;
#X connect 6 1 11 0;
#X connect 7 0 10 0;
#X connect 8 0 6 0;
#X connect 9 0 8 0;
#X connect 11 0 1 0;
#X connect 11 1 2 0;
#X restore 253 187 pd ccc;
#N canvas 0 50 393 312 ccc 0;
#X msg 38 221 label \$1dBFS;
#X obj 137 114 t b f;
#X obj 176 114 t b f;
#X msg 203 150 color 0 0 -1.67117e+07;
#X obj 38 91 t b f;
#X msg 18 151 color 0 0 -1;
#X obj 38 68 moses -12;
#X msg 137 190 color 0 0 -1;
#N canvas 761 238 450 300 digits 0;
#X obj 31 24 inlet;
#X obj 31 103 outlet;
#X obj 31 57 expr 0.01*trunc($f1*100);
#X connect 0 0 2 0;
#X connect 2 0 1 0;
#X restore 38 42 pd digits;
#X obj 38 18 inlet;
#X obj 38 254 outlet;
#X obj 137 91 moses -1;
#X connect 0 0 10 0;
#X connect 1 0 7 0;
#X connect 1 1 0 0;
#X connect 2 0 3 0;
#X connect 2 1 0 0;
#X connect 3 0 10 0;
#X connect 4 0 5 0;
#X connect 4 1 0 0;
#X connect 5 0 10 0;
#X connect 6 0 4 0;
#X connect 6 1 11 0;
#X connect 7 0 10 0;
#X connect 8 0 6 0;
#X connect 9 0 8 0;
#X connect 11 0 1 0;
#X connect 11 1 2 0;
#X restore 53 323 pd ccc;
#N canvas 0 50 393 312 ccc 0;
#X msg 38 221 label \$1dBFS;
#X obj 137 114 t b f;
#X obj 176 114 t b f;
#X msg 203 150 color 0 0 -1.67117e+07;
#X obj 38 91 t b f;
#X msg 18 151 color 0 0 -1;
#X obj 38 68 moses -12;
#X msg 137 190 color 0 0 -1;
#N canvas 761 238 450 300 digits 0;
#X obj 31 24 inlet;
#X obj 31 103 outlet;
#X obj 31 57 expr 0.01*trunc($f1*100);
#X connect 0 0 2 0;
#X connect 2 0 1 0;
#X restore 38 42 pd digits;
#X obj 38 18 inlet;
#X obj 38 254 outlet;
#X obj 137 91 moses -1;
#X connect 0 0 10 0;
#X connect 1 0 7 0;
#X connect 1 1 0 0;
#X connect 2 0 3 0;
#X connect 2 1 0 0;
#X connect 3 0 10 0;
#X connect 4 0 5 0;
#X connect 4 1 0 0;
#X connect 5 0 10 0;
#X connect 6 0 4 0;
#X connect 6 1 11 0;
#X connect 7 0 10 0;
#X connect 8 0 6 0;
#X connect 9 0 8 0;
#X connect 11 0 1 0;
#X connect 11 1 2 0;
#X restore 243 323 pd ccc;
#X obj 53 347 s \$0-l1cvs.r;
#X obj 243 346 s \$0-r1cvs.r;
#X obj 253 209 s \$0-r0cvs.r;
#X obj 23 209 s \$0-l0cvs.r;
#X connect 0 0 2 0;
#X connect 0 0 10 0;
#X connect 1 0 3 0;
#X connect 1 0 11 0;
#X connect 2 0 4 0;
#X connect 3 0 5 0;
#X connect 4 0 6 0;
#X connect 5 0 7 0;
#X connect 6 0 17 0;
#X connect 7 0 18 0;
#X connect 8 0 9 0;
#X connect 9 0 16 0;
#X connect 10 0 12 0;
#X connect 11 0 13 0;
#X connect 12 0 19 0;
#X connect 13 0 20 0;
#X connect 14 0 15 0;
#X connect 15 0 10 1;
#X connect 15 1 11 1;
#X connect 16 0 4 0;
#X connect 16 1 5 0;
#X connect 17 0 24 0;
#X connect 18 0 23 0;
#X connect 19 0 21 0;
#X connect 20 0 22 0;
#X restore 37 251 pd meter;
#X obj 292 75 == 0;
#X obj 292 98 switch~;
#X obj 159 100 r \$0-fader.s;
#X obj 159 47 r \$0-pan.s;
#X obj 292 52 r \$0-mute.s;
#X obj 159 123 else/db2lin;
#X connect 0 0 2 0;
#X connect 1 0 2 1;
#X connect 2 0 4 0;
#X connect 2 1 5 0;
#X connect 3 0 2 2;
#X connect 4 0 7 0;
#X connect 4 0 9 0;
#X connect 5 0 8 0;
#X connect 5 0 9 1;
#X connect 6 0 5 1;
#X connect 6 0 4 1;
#X connect 10 0 11 0;
#X connect 12 0 15 0;
#X connect 13 0 3 0;
#X connect 14 0 10 0;
#X connect 15 0 6 0;
#X restore 15 167 pd dsp;
#X obj 15 144 inlet~;
#X obj 65 144 inlet~;
#X obj 400 28 r \$0-dump.s;
#X obj 400 51 esdf/msg.dump;
#X obj 400 74 esdf/states;
#X obj 400 97 esdf/mount \$1;
#X obj 340 97 inlet;
#X obj 340 120 esdf/args.route0 reset dump fader mute pan;
#X obj 302 156 outlet;
#X obj 299 218 esdf/state.param \$0 fader;
#X obj 299 238 esdf/state.param \$0 mute;
#X obj 299 258 esdf/state.param \$0 pan;
#X obj 512 180 else/initmess bang \; \$0-mute.r 0 \; \$0-fader.r 0
\; \$0-pan.r 0 \;;
#X obj 512 242 del 0;
#X obj 512 289 esdf/args.init null fader pan mute;
#X obj 15 190 outlet~;
#X obj 48 214 outlet~;
#X obj 70 22 bng 15 250 50 0 \$0-reset.s \$0-reset.r reset 17 7 0 10
-262144 -1 -1;
#X obj 9 22 bng 15 250 50 0 \$0-dump.s \$0-dump.r dump 17 7 0 10 -262144
-1 -1;
#X obj 9 54 nbx 5 14 -1e+37 1e+37 0 0 \$0-fader.s \$0-fader.r gain(dB)
0 -8 0 10 -262144 -1 -1 -12 256;
#X obj 69 54 nbx 5 14 -1 1 0 0 \$0-pan.s \$0-pan.r pan 0 -8 0 10 -262144
-1 -1 0 256;
#X obj 6 77 cnv 15 60 18 empty \$0-l0cvs.r -999dBFS 3 9 0 10 -262144
-1 0;
#X obj 63 77 cnv 15 60 18 empty \$0-r0cvs.r -999dBFS 5 9 0 10 -262144
-1 0;
#X obj 5 100 cnv 15 60 18 empty \$0-l1cvs.r -12dBFS 3 9 0 10 -262144
-1 0;
#X obj 63 100 cnv 15 60 18 empty \$0-r1cvs.r -12dBFS 5 9 0 10 -262144
-1 0;
#X obj 132 23 tgl 15 0 \$0-mute.s \$0-mute.r mute 17 7 0 10 -262144
-1 -1 0 1;
#X obj 512 265 canvasargs;
#X connect 0 0 16 0;
#X connect 0 1 17 0;
#X connect 1 0 0 0;
#X connect 2 0 0 1;
#X connect 3 0 4 0;
#X connect 4 0 5 0;
#X connect 4 1 6 0;
#X connect 5 0 6 0;
#X connect 5 0 9 0;
#X connect 6 0 8 0;
#X connect 7 0 8 0;
#X connect 10 0 5 0;
#X connect 11 0 5 0;
#X connect 12 0 5 0;
#X connect 13 0 14 0;
#X connect 14 0 27 0;
#X connect 15 0 8 0;
#X connect 27 0 15 0;
#X coords 0 1 1 -1 182 122 1 1 1;
