#N canvas 0 29 281 365 10;
#X obj 25 35 inlet;
#X msg 25 131 \$1 0;
#X obj 25 154 vline~;
#X obj 25 58 route float bang;
#X msg 71 86 1;
#X obj 25 177 outlet~;
#X connect 0 0 3 0;
#X connect 1 0 2 0;
#X connect 2 0 5 0;
#X connect 3 0 1 0;
#X connect 3 1 4 0;
#X connect 4 0 1 0;
