#N canvas 187 118 866 484 10;
#X obj 26 13 esdf/dsp~;
#X obj 11 57 noise~;
#X obj 11 131 tanh~;
#X obj 12 174 esdf/a00~ 0 sin 0;
#X obj 12 197 mtl/spectrogram~;
#X obj 11 85 esdf/liad.lp2~, f 29;
#X obj 386 197 esdf/gain~ 0 -12 0 1;
#X obj 386 324 dac~;
#X obj 95 57 sig~ 100;
#X obj 11 108 esdf/affinedb~ 30;
#X obj 181 58 sig~ 50;
#X connect 1 0 5 0;
#X connect 2 0 3 2;
#X connect 3 0 4 0;
#X connect 3 0 6 0;
#X connect 5 0 9 0;
#X connect 5 1 3 1;
#X connect 6 0 7 0;
#X connect 6 0 7 1;
#X connect 8 0 3 0;
#X connect 8 0 5 1;
#X connect 9 0 2 0;
#X connect 10 0 5 2;
