#N canvas 577 93 652 376 10;
#X obj 21 33 inlet~;
#X obj 131 33 inlet~;
#X obj 241 33 inlet~;
#X obj 131 56 phasor~;
#X obj 131 79 else/sin~;
#X obj 141 101 cos~;
#X obj 63 125 *~;
#X obj 63 155 *~;
#X obj 92 188 iemlib/vcf_lp2~;
#X obj 259 113 sig~ 0.707;
#X obj 92 218 iemlib/vcf_lp2~;
#X obj 72 293 outlet~;
#X obj 249 293 outlet~;
#X obj 72 257 expr~ sqrt($v1*$v1 + $v2*$v2) \; atan($v1 * 1/$v2) /
$v3;
#X obj 382 111 else/pi;
#X obj 382 134 sig~;
#X obj 382 88 loadbang;
#X connect 0 0 6 0;
#X connect 0 0 7 0;
#X connect 1 0 3 0;
#X connect 2 0 8 1;
#X connect 2 0 10 1;
#X connect 3 0 4 0;
#X connect 3 0 5 0;
#X connect 4 0 6 1;
#X connect 5 0 7 1;
#X connect 6 0 8 0;
#X connect 7 0 10 0;
#X connect 8 0 13 0;
#X connect 9 0 8 2;
#X connect 9 0 10 2;
#X connect 10 0 13 1;
#X connect 13 0 11 0;
#X connect 13 1 12 0;
#X connect 14 0 15 0;
#X connect 15 0 13 2;
#X connect 16 0 14 0;
