#N canvas 303 138 779 542 10;
#X obj 11 20 esdf/dsp~;
#X obj 11 57 noise~;
#X obj 11 208 mtl/scope~;
#X obj 11 131 tanh~;
#X obj 362 185 esdf/a00~ 0 sin 0;
#X obj 362 208 mtl/spectrogram~;
#X obj 396 21 esdf/gain~ 0 -12 0 1;
#X obj 396 151 dac~;
#X obj 11 85 esdf/lias.lp2~, f 29;
#X obj 11 108 esdf/affinedb~ 60;
#X obj 181 58 sig~ 3;
#X obj 95 57 sig~ 50;
#X connect 1 0 8 0;
#X connect 3 0 2 0;
#X connect 3 0 4 2;
#X connect 4 0 5 0;
#X connect 4 0 6 0;
#X connect 6 0 7 0;
#X connect 6 0 7 1;
#X connect 8 0 9 0;
#X connect 9 0 3 0;
#X connect 10 0 8 2;
#X connect 11 0 4 0;
#X connect 11 0 8 1;
