#N canvas 455 273 450 300 10;
#X obj 18 23 esdf/dsp~;
#X obj 18 57 adc~;
#X obj 167 23 bng 15 250 50 0 empty empty empty 17 7 0 10 -262144 -1
-1;
#X msg 167 43 reset;
#X obj 167 66 s channel.s;
#X obj 244 24 nbx 5 14 -1e+37 1e+37 0 0 empty empty empty 0 -8 0 10
-262144 -1 -1 0 256;
#X msg 244 43 fader \$1;
#X msg 167 89 dump;
#X obj 167 112 s channel.s;
#X obj 167 163 esdf/preset.prepare;
#X obj 167 140 r channel.r;
#X msg 167 186 pan 0 \, mute 0 \, fader -25.0673 \,;
#X obj 167 209 s channel.s;
#X obj 18 85 esdf/master~ channel;
#X connect 1 0 13 0;
#X connect 1 1 13 1;
#X connect 2 0 3 0;
#X connect 3 0 4 0;
#X connect 5 0 6 0;
#X connect 6 0 4 0;
#X connect 7 0 8 0;
#X connect 9 0 11 0;
#X connect 10 0 9 0;
#X connect 11 0 12 0;
