#N canvas 217 187 605 382 10;
#X obj 26 36 inlet;
#N canvas 940 272 450 300 \$0-matcher 1;
#X obj 27 27 inlet;
#X obj 27 194 outlet;
#X obj 27 164 spigot;
#X msg 60 139 1;
#X msg 98 139 0;
#X obj 27 50 t a a;
#X connect 0 0 5 0;
#X connect 2 0 1 0;
#X connect 3 0 2 1;
#X connect 4 0 2 1;
#X connect 5 0 2 0;
#X restore 26 59 pd \$0-matcher;
#X obj 26 82 outlet;
#X obj 306 36 initbang;
#X obj 306 59 canvasargs;
#N canvas 173 190 614 584 \$0-gen 1;
#X obj 37 37 inlet;
#X obj 76 106 list trim;
#X obj 76 341 s pd-\$0-matcher;
#X obj 76 83 list prepend obj 60 100 route;
#X obj 56 132 list length;
#X obj 37 60 t b a a;
#X msg 37 228 connect 6 \$1 3 0;
#X obj 37 180 for++ 0 0;
#X obj 56 155 - 1;
#X obj 37 203 t f f;
#X obj 88 280 f 0;
#X obj 103 257 + 1;
#X msg 88 306 connect 6 \$1 4 0;
#X msg 98 31 a 1 b;
#X obj 88 205 t b b;
#X msg 156 228 connect 5 1 6 0;
#X connect 0 0 5 0;
#X connect 1 0 2 0;
#X connect 3 0 1 0;
#X connect 4 0 8 0;
#X connect 5 0 7 0;
#X connect 5 1 4 0;
#X connect 5 2 3 0;
#X connect 6 0 2 0;
#X connect 7 0 9 0;
#X connect 7 1 14 0;
#X connect 8 0 7 1;
#X connect 9 0 6 0;
#X connect 9 1 11 0;
#X connect 10 0 12 0;
#X connect 11 0 10 1;
#X connect 12 0 2 0;
#X connect 13 0 5 0;
#X connect 14 0 10 0;
#X connect 14 1 15 0;
#X connect 15 0 2 0;
#X restore 306 82 pd \$0-gen;
#X connect 0 0 1 0;
#X connect 1 0 2 0;
#X connect 3 0 4 0;
#X connect 4 0 5 0;
