#N canvas 418 210 651 397 10;
#X msg 37 40 1;
#X msg 77 40 asdf 3;
#X msg 137 40 esdf;
#X obj 37 106 print;
#X msg 187 40 k;
#X obj 37 83 esdf/match.or asdf esdf;
#X connect 0 0 5 0;
#X connect 1 0 5 0;
#X connect 2 0 5 0;
#X connect 4 0 5 0;
#X connect 5 0 3 0;
