#N canvas 14 70 1307 756 10;
#X obj 707 97 inlet;
#N canvas 820 52 377 704 \$0-gui 0;
#X obj 26 172 hsl 128 8 0 1.2 0 0 \$0-sfader1.s \$0-sfader1.r fader
-4 -8 0 10 -262144 -1 -1 10583 1;
#X obj 26 202 hsl 128 8 -1 1 0 1 \$0-span1.s \$0-span1.r pan -4 -8
0 10 -262144 -1 -1 6350 1;
#X obj 164 168 nbx 5 12 -1e+37 100 0 0 \$0-fader1.s \$0-fader1.r empty
0 -8 0 10 -262144 -1 -1 0 256;
#X obj 164 199 nbx 5 12 -1 1 0 0 \$0-pan1.s \$0-pan1.r empty 0 -8 0
10 -262144 -1 -1 0 256;
#X obj 44 139 tgl 12 0 \$0-mute1.s \$0-mute1.r mute 17 6 0 10 -262144
-1 -1 1 1;
#X obj 64 21 bng 15 250 50 0 \$0-reset.s \$0-reset.r reset 17 7 0 10
-262144 -1 -1;
#X obj 8 21 bng 15 250 50 0 \$0-dump.s \$0-dump.r dump 17 7 0 10 -262144
-1 -1;
#X text 6 136 ch 1;
#X obj 233 165 cnv 15 60 18 empty \$0-l0cvs1.r -999dBFS 5 9 0 10 -262144
-1 0;
#X obj 303 165 cnv 15 60 18 empty \$0-r0cvs1.r -999dBFS 5 9 0 10 -262144
-1 0;
#X obj 233 197 cnv 15 60 18 empty \$0-l1cvs1.r -3.16dBFS 5 9 0 10 -262144
-1601 0;
#X obj 303 197 cnv 15 60 18 empty \$0-r1cvs1.r -3.16dBFS 5 9 0 10 -262144
-1601 0;
#X obj 26 262 hsl 128 8 0 1.2 0 0 \$0-sfader2.s \$0-sfader2.r fader
-4 -8 0 10 -262144 -1 -1 10583 1;
#X obj 26 292 hsl 128 8 -1 1 0 1 \$0-span2.s \$0-span2.r pan -4 -8
0 10 -262144 -1 -1 6350 1;
#X obj 164 258 nbx 5 12 -1e+37 100 0 0 \$0-fader2.s \$0-fader2.r empty
0 -8 0 10 -262144 -1 -1 0 256;
#X obj 164 289 nbx 5 12 -1 1 0 0 \$0-pan2.s \$0-pan2.r empty 0 -8 0
10 -262144 -1 -1 0 256;
#X obj 44 229 tgl 12 0 \$0-mute2.s \$0-mute2.r mute 17 6 0 10 -262144
-1 -1 1 1;
#X obj 233 255 cnv 15 60 18 empty \$0-l0cvs2.r -999dBFS 5 9 0 10 -262144
-1 0;
#X obj 303 255 cnv 15 60 18 empty \$0-r0cvs2.r -999dBFS 5 9 0 10 -262144
-1 0;
#X obj 233 287 cnv 15 60 18 empty \$0-l1cvs2.r -999dBFS 5 9 0 10 -262144
-1 0;
#X obj 303 287 cnv 15 60 18 empty \$0-r1cvs2.r -999dBFS 5 9 0 10 -262144
-1 0;
#X text 6 226 ch 2;
#X obj 26 352 hsl 128 8 0 1.2 0 0 \$0-sfader3.s \$0-sfader3.r fader
-4 -8 0 10 -262144 -1 -1 10583 1;
#X obj 26 382 hsl 128 8 -1 1 0 1 \$0-span3.s \$0-span3.r pan -4 -8
0 10 -262144 -1 -1 6350 1;
#X obj 164 348 nbx 5 12 -1e+37 100 0 0 \$0-fader3.s \$0-fader3.r empty
0 -8 0 10 -262144 -1 -1 0 256;
#X obj 164 379 nbx 5 12 -1 1 0 0 \$0-pan3.s \$0-pan3.r empty 0 -8 0
10 -262144 -1 -1 0 256;
#X obj 44 319 tgl 12 0 \$0-mute3.s \$0-mute3.r mute 17 6 0 10 -262144
-1 -1 1 1;
#X obj 233 345 cnv 15 60 18 empty \$0-l0cvs3.r -999dBFS 5 9 0 10 -262144
-1 0;
#X obj 303 345 cnv 15 60 18 empty \$0-r0cvs3.r -999dBFS 5 9 0 10 -262144
-1 0;
#X obj 233 377 cnv 15 60 18 empty \$0-l1cvs3.r -4.71dBFS 5 9 0 10 -262144
-1601 0;
#X obj 303 377 cnv 15 60 18 empty \$0-r1cvs3.r -4.71dBFS 5 9 0 10 -262144
-1601 0;
#X text 6 316 ch 3;
#X obj 26 442 hsl 128 8 0 1.2 0 0 \$0-sfader4.s \$0-sfader4.r fader
-4 -8 0 10 -262144 -1 -1 10583 1;
#X obj 26 472 hsl 128 8 -1 1 0 1 \$0-span4.s \$0-span4.r pan -4 -8
0 10 -262144 -1 -1 6350 1;
#X obj 164 438 nbx 5 12 -1e+37 100 0 0 \$0-fader4.s \$0-fader4.r empty
0 -8 0 10 -262144 -1 -1 0 256;
#X obj 164 469 nbx 5 12 -1 1 0 0 \$0-pan4.s \$0-pan4.r empty 0 -8 0
10 -262144 -1 -1 0 256;
#X obj 44 409 tgl 12 0 \$0-mute4.s \$0-mute4.r mute 17 6 0 10 -262144
-1 -1 1 1;
#X obj 233 435 cnv 15 60 18 empty \$0-l0cvs4.r -999dBFS 5 9 0 10 -262144
-1 0;
#X obj 303 435 cnv 15 60 18 empty \$0-r0cvs4.r -999dBFS 5 9 0 10 -262144
-1 0;
#X obj 233 467 cnv 15 60 18 empty \$0-l1cvs4.r -999dBFS 5 9 0 10 -262144
-1 0;
#X obj 303 467 cnv 15 60 18 empty \$0-r1cvs4.r -999dBFS 5 9 0 10 -262144
-1 0;
#X text 6 406 ch 4;
#X obj 26 532 hsl 128 8 0 1.2 0 0 \$0-sfader5.s \$0-sfader5.r fader
-4 -8 0 10 -262144 -1 -1 10583 1;
#X obj 26 562 hsl 128 8 -1 1 0 1 \$0-span5.s \$0-span5.r pan -4 -8
0 10 -262144 -1 -1 6350 1;
#X obj 164 528 nbx 5 12 -1e+37 100 0 0 \$0-fader5.s \$0-fader5.r empty
0 -8 0 10 -262144 -1 -1 0 256;
#X obj 164 559 nbx 5 12 -1 1 0 0 \$0-pan5.s \$0-pan5.r empty 0 -8 0
10 -262144 -1 -1 0 256;
#X obj 44 499 tgl 12 0 \$0-mute5.s \$0-mute5.r mute 17 6 0 10 -262144
-1 -1 1 1;
#X obj 233 525 cnv 15 60 18 empty \$0-l0cvs5.r -999dBFS 5 9 0 10 -262144
-1 0;
#X obj 303 525 cnv 15 60 18 empty \$0-r0cvs5.r -999dBFS 5 9 0 10 -262144
-1 0;
#X obj 233 557 cnv 15 60 18 empty \$0-l1cvs5.r -999dBFS 5 9 0 10 -262144
-1 0;
#X obj 303 557 cnv 15 60 18 empty \$0-r1cvs5.r -999dBFS 5 9 0 10 -262144
-1 0;
#X text 6 496 ch 5;
#X obj 26 622 hsl 128 8 0 1.2 0 0 \$0-sfader6.s \$0-sfader6.r fader
-4 -8 0 10 -262144 -1 -1 10583 1;
#X obj 26 652 hsl 128 8 -1 1 0 1 \$0-span6.s \$0-span6.r pan -4 -8
0 10 -262144 -1 -1 6350 1;
#X obj 164 618 nbx 5 12 -1e+37 100 0 0 \$0-fader6.s \$0-fader6.r empty
0 -8 0 10 -262144 -1 -1 0 256;
#X obj 164 649 nbx 5 12 -1 1 0 0 \$0-pan6.s \$0-pan6.r empty 0 -8 0
10 -262144 -1 -1 0 256;
#X obj 44 589 tgl 12 0 \$0-mute6.s \$0-mute6.r mute 17 6 0 10 -262144
-1 -1 1 1;
#X obj 233 615 cnv 15 60 18 empty \$0-l0cvs6.r -999dBFS 5 9 0 10 -262144
-1 0;
#X obj 303 615 cnv 15 60 18 empty \$0-r0cvs6.r -999dBFS 5 9 0 10 -262144
-1 0;
#X obj 233 647 cnv 15 60 18 empty \$0-l1cvs6.r -999dBFS 5 9 0 10 -262144
-1 0;
#X obj 303 647 cnv 15 60 18 empty \$0-r1cvs6.r -999dBFS 5 9 0 10 -262144
-1 0;
#X text 6 586 ch 6;
#X obj 26 82 hsl 128 8 0 1.2 0 0 \$0-sfader.s \$0-sfader.r fader -4
-8 0 10 -262144 -1 -1 10583 1;
#X obj 26 112 hsl 128 8 -1 1 0 1 \$0-span.s \$0-span.r pan -4 -8 0
10 -262144 -1 -1 6350 1;
#X obj 164 78 nbx 5 12 -1e+37 100 0 0 \$0-fader.s \$0-fader.r empty
0 -8 0 10 -262144 -1 -1 0 256;
#X obj 164 109 nbx 5 12 -1 1 0 0 \$0-pan.s \$0-pan.r empty 0 -8 0 10
-262144 -1 -1 0 256;
#X obj 52 49 tgl 12 0 \$0-mute.s \$0-mute.r mute 17 6 0 10 -262144
-1 -1 1 1;
#X obj 233 75 cnv 15 60 18 empty \$0-l0cvs.r -999dBFS 5 9 0 10 -262144
-1 0;
#X obj 303 75 cnv 15 60 18 empty \$0-r0cvs.r -999dBFS 5 9 0 10 -262144
-1 0;
#X obj 233 107 cnv 15 60 18 empty \$0-l1cvs.r -infdBFS 5 9 0 10 -262144
-1 0;
#X obj 303 107 cnv 15 60 18 empty \$0-r1cvs.r -infdBFS 5 9 0 10 -262144
-1 0;
#X text 6 46 MASTER;
#X obj 177 46 cnv 15 60 18 empty \$0-mcvs.r -infLUFS 5 9 0 10 -262144
-1 0;
#X obj 291 46 cnv 15 60 18 empty \$0-scvs.r -infLUFS 5 9 0 10 -262144
-1 0;
#X text 116 46 momentary:;
#X text 254 46 short:;
#X restore 1066 20 pd \$0-gui;
#X obj 1066 49 else/click;
#X msg 1066 72 vis 1;
#X obj 1066 95 s pd-\$0-gui;
#X obj 751 97 esdf/mount \$1;
#X obj 751 71 esdf/states;
#X obj 1066 120 r _global/dump;
#X obj 751 24 r \$0-dump.s;
#X obj 1066 143 s \$0-dump.r;
#X obj 751 47 esdf/msg.dump;
#N canvas 383 247 427 296 dsp 0;
#X obj 36 47 inlet~;
#X obj 84 47 inlet~;
#X obj 37 103 else/balance~, f 16;
#X obj 159 70 else/float2sig~ 10;
#X obj 37 186 *~;
#X obj 130 186 *~;
#X obj 159 126 else/float2sig~ 10;
#X obj 37 209 outlet~;
#X obj 130 209 outlet~;
#N canvas 497 152 662 462 meter 0;
#X obj 23 96 inlet~;
#X obj 243 96 inlet~;
#X obj 23 119 peakenv~ 300;
#X obj 253 119 peakenv~ 300;
#X obj 23 142 snapshot~;
#X obj 253 142 snapshot~;
#X obj 23 165 else/lin2db;
#X obj 253 165 else/lin2db;
#X obj 23 13 loadbang;
#X obj 23 36 metro 150;
#X obj 53 278 esdf/block.maxpeak~;
#X obj 243 278 esdf/block.maxpeak~;
#X obj 53 301 else/lin2db;
#X obj 243 301 else/lin2db;
#X obj 164 13 r \$0-reset.s;
#X obj 164 36 t b b;
#X obj 23 59 t b b;
#X obj 23 209 s \$0-l0cvs1.r;
#X obj 253 209 s \$0-r0cvs1.r;
#X obj 53 347 s \$0-l1cvs1.r;
#X obj 243 346 s \$0-r1cvs1.r;
#N canvas 0 50 393 312 ccc 0;
#X msg 38 221 label \$1dBFS;
#X obj 137 114 t b f;
#X obj 176 114 t b f;
#X msg 203 150 color 0 0 -1.67117e+07;
#X obj 38 91 t b f;
#X msg 18 151 color 0 0 -1;
#X obj 38 68 moses -12;
#X msg 137 190 color 0 0 -1;
#N canvas 761 238 450 300 digits 0;
#X obj 31 24 inlet;
#X obj 31 103 outlet;
#X obj 31 57 expr 0.01*trunc($f1*100);
#X connect 0 0 2 0;
#X connect 2 0 1 0;
#X restore 38 42 pd digits;
#X obj 38 18 inlet;
#X obj 38 254 outlet;
#X obj 137 91 moses -1;
#X connect 0 0 10 0;
#X connect 1 0 7 0;
#X connect 1 1 0 0;
#X connect 2 0 3 0;
#X connect 2 1 0 0;
#X connect 3 0 10 0;
#X connect 4 0 5 0;
#X connect 4 1 0 0;
#X connect 5 0 10 0;
#X connect 6 0 4 0;
#X connect 6 1 11 0;
#X connect 7 0 10 0;
#X connect 8 0 6 0;
#X connect 9 0 8 0;
#X connect 11 0 1 0;
#X connect 11 1 2 0;
#X restore 23 187 pd ccc;
#N canvas 0 50 393 312 ccc 0;
#X msg 38 221 label \$1dBFS;
#X obj 137 114 t b f;
#X obj 176 114 t b f;
#X msg 203 150 color 0 0 -1.67117e+07;
#X obj 38 91 t b f;
#X msg 18 151 color 0 0 -1;
#X obj 38 68 moses -12;
#X msg 137 190 color 0 0 -1;
#N canvas 761 238 450 300 digits 0;
#X obj 31 24 inlet;
#X obj 31 103 outlet;
#X obj 31 57 expr 0.01*trunc($f1*100);
#X connect 0 0 2 0;
#X connect 2 0 1 0;
#X restore 38 42 pd digits;
#X obj 38 18 inlet;
#X obj 38 254 outlet;
#X obj 137 91 moses -1;
#X connect 0 0 10 0;
#X connect 1 0 7 0;
#X connect 1 1 0 0;
#X connect 2 0 3 0;
#X connect 2 1 0 0;
#X connect 3 0 10 0;
#X connect 4 0 5 0;
#X connect 4 1 0 0;
#X connect 5 0 10 0;
#X connect 6 0 4 0;
#X connect 6 1 11 0;
#X connect 7 0 10 0;
#X connect 8 0 6 0;
#X connect 9 0 8 0;
#X connect 11 0 1 0;
#X connect 11 1 2 0;
#X restore 253 187 pd ccc;
#N canvas 0 50 393 312 ccc 0;
#X msg 38 221 label \$1dBFS;
#X obj 137 114 t b f;
#X obj 176 114 t b f;
#X msg 203 150 color 0 0 -1.67117e+07;
#X obj 38 91 t b f;
#X msg 18 151 color 0 0 -1;
#X obj 38 68 moses -12;
#X msg 137 190 color 0 0 -1;
#N canvas 761 238 450 300 digits 0;
#X obj 31 24 inlet;
#X obj 31 103 outlet;
#X obj 31 57 expr 0.01*trunc($f1*100);
#X connect 0 0 2 0;
#X connect 2 0 1 0;
#X restore 38 42 pd digits;
#X obj 38 18 inlet;
#X obj 38 254 outlet;
#X obj 137 91 moses -1;
#X connect 0 0 10 0;
#X connect 1 0 7 0;
#X connect 1 1 0 0;
#X connect 2 0 3 0;
#X connect 2 1 0 0;
#X connect 3 0 10 0;
#X connect 4 0 5 0;
#X connect 4 1 0 0;
#X connect 5 0 10 0;
#X connect 6 0 4 0;
#X connect 6 1 11 0;
#X connect 7 0 10 0;
#X connect 8 0 6 0;
#X connect 9 0 8 0;
#X connect 11 0 1 0;
#X connect 11 1 2 0;
#X restore 53 323 pd ccc;
#N canvas 0 50 393 312 ccc 0;
#X msg 38 221 label \$1dBFS;
#X obj 137 114 t b f;
#X obj 176 114 t b f;
#X msg 203 150 color 0 0 -1.67117e+07;
#X obj 38 91 t b f;
#X msg 18 151 color 0 0 -1;
#X obj 38 68 moses -12;
#X msg 137 190 color 0 0 -1;
#N canvas 761 238 450 300 digits 0;
#X obj 31 24 inlet;
#X obj 31 103 outlet;
#X obj 31 57 expr 0.01*trunc($f1*100);
#X connect 0 0 2 0;
#X connect 2 0 1 0;
#X restore 38 42 pd digits;
#X obj 38 18 inlet;
#X obj 38 254 outlet;
#X obj 137 91 moses -1;
#X connect 0 0 10 0;
#X connect 1 0 7 0;
#X connect 1 1 0 0;
#X connect 2 0 3 0;
#X connect 2 1 0 0;
#X connect 3 0 10 0;
#X connect 4 0 5 0;
#X connect 4 1 0 0;
#X connect 5 0 10 0;
#X connect 6 0 4 0;
#X connect 6 1 11 0;
#X connect 7 0 10 0;
#X connect 8 0 6 0;
#X connect 9 0 8 0;
#X connect 11 0 1 0;
#X connect 11 1 2 0;
#X restore 243 323 pd ccc;
#X connect 0 0 2 0;
#X connect 0 0 10 0;
#X connect 1 0 3 0;
#X connect 1 0 11 0;
#X connect 2 0 4 0;
#X connect 3 0 5 0;
#X connect 4 0 6 0;
#X connect 5 0 7 0;
#X connect 6 0 21 0;
#X connect 7 0 22 0;
#X connect 8 0 9 0;
#X connect 9 0 16 0;
#X connect 10 0 12 0;
#X connect 11 0 13 0;
#X connect 12 0 23 0;
#X connect 13 0 24 0;
#X connect 14 0 15 0;
#X connect 15 0 10 1;
#X connect 15 1 11 1;
#X connect 16 0 4 0;
#X connect 16 1 5 0;
#X connect 21 0 17 0;
#X connect 22 0 18 0;
#X connect 23 0 19 0;
#X connect 24 0 20 0;
#X restore 37 251 pd meter;
#X obj 159 47 r \$0-pan1.s;
#X obj 159 103 r \$0-sfader1.s;
#N canvas 0 50 644 189 route 0;
#X obj 27 81 else/lin2db;
#X obj 27 106 change;
#X obj 391 57 change;
#X obj 197 55 else/db2lin;
#X obj 27 57 pow 2;
#X obj 197 80 sqrt;
#X obj 27 32 r \$0-sfader1.s;
#X obj 27 131 s \$0-fader1.r;
#X obj 197 31 r \$0-fader1.s;
#X obj 197 107 s \$0-sfader1.r;
#X obj 391 32 r \$0-span1.s;
#X obj 391 82 s \$0-pan1.r;
#X obj 526 33 r \$0-pan1.s;
#X obj 526 58 s \$0-span1.r;
#X connect 0 0 1 0;
#X connect 1 0 7 0;
#X connect 2 0 11 0;
#X connect 3 0 5 0;
#X connect 4 0 0 0;
#X connect 5 0 9 0;
#X connect 6 0 4 0;
#X connect 8 0 3 0;
#X connect 10 0 2 0;
#X connect 12 0 13 0;
#X restore 292 20 pd route;
#X obj 292 75 == 0;
#X obj 292 98 switch~;
#X obj 292 52 r \$0-mute1.s;
#X connect 0 0 2 0;
#X connect 1 0 2 1;
#X connect 2 0 4 0;
#X connect 2 1 5 0;
#X connect 3 0 2 2;
#X connect 4 0 7 0;
#X connect 4 0 9 0;
#X connect 5 0 8 0;
#X connect 5 0 9 1;
#X connect 6 0 5 1;
#X connect 6 0 4 1;
#X connect 10 0 3 0;
#X connect 11 0 6 0;
#X connect 13 0 14 0;
#X connect 15 0 13 0;
#X restore 32 72 pd dsp;
#X obj 32 49 inlet~;
#X obj 82 49 inlet~;
#X obj 32 215 outlet~;
#X obj 472 215 outlet~;
#N canvas 383 247 427 296 dsp 0;
#X obj 36 47 inlet~;
#X obj 84 47 inlet~;
#X obj 37 103 else/balance~, f 16;
#X obj 159 70 else/float2sig~ 10;
#X obj 37 186 *~;
#X obj 130 186 *~;
#X obj 159 126 else/float2sig~ 10;
#X obj 37 209 outlet~;
#X obj 130 209 outlet~;
#N canvas 289 96 662 462 meter 0;
#X obj 23 96 inlet~;
#X obj 243 96 inlet~;
#X obj 23 119 peakenv~ 300;
#X obj 253 119 peakenv~ 300;
#X obj 23 142 snapshot~;
#X obj 253 142 snapshot~;
#X obj 23 165 else/lin2db;
#X obj 253 165 else/lin2db;
#X obj 23 13 loadbang;
#X obj 23 36 metro 150;
#X obj 53 278 esdf/block.maxpeak~;
#X obj 243 278 esdf/block.maxpeak~;
#X obj 53 301 else/lin2db;
#X obj 243 301 else/lin2db;
#X obj 164 13 r \$0-reset.s;
#X obj 164 36 t b b;
#X obj 23 59 t b b;
#X obj 23 209 s \$0-l0cvs2.r;
#X obj 253 209 s \$0-r0cvs2.r;
#X obj 243 346 s \$0-r1cvs2.r;
#X obj 53 347 s \$0-l1cvs2.r;
#N canvas 0 50 393 312 ccc 0;
#X msg 38 221 label \$1dBFS;
#X obj 137 114 t b f;
#X obj 176 114 t b f;
#X msg 203 150 color 0 0 -1.67117e+07;
#X obj 38 91 t b f;
#X msg 18 151 color 0 0 -1;
#X obj 38 68 moses -12;
#X msg 137 190 color 0 0 -1;
#N canvas 761 238 450 300 digits 0;
#X obj 31 24 inlet;
#X obj 31 103 outlet;
#X obj 31 57 expr 0.01*trunc($f1*100);
#X connect 0 0 2 0;
#X connect 2 0 1 0;
#X restore 38 42 pd digits;
#X obj 38 18 inlet;
#X obj 38 254 outlet;
#X obj 137 91 moses -1;
#X connect 0 0 10 0;
#X connect 1 0 7 0;
#X connect 1 1 0 0;
#X connect 2 0 3 0;
#X connect 2 1 0 0;
#X connect 3 0 10 0;
#X connect 4 0 5 0;
#X connect 4 1 0 0;
#X connect 5 0 10 0;
#X connect 6 0 4 0;
#X connect 6 1 11 0;
#X connect 7 0 10 0;
#X connect 8 0 6 0;
#X connect 9 0 8 0;
#X connect 11 0 1 0;
#X connect 11 1 2 0;
#X restore 23 187 pd ccc;
#N canvas 0 50 393 312 ccc 0;
#X msg 38 221 label \$1dBFS;
#X obj 137 114 t b f;
#X obj 176 114 t b f;
#X msg 203 150 color 0 0 -1.67117e+07;
#X obj 38 91 t b f;
#X msg 18 151 color 0 0 -1;
#X obj 38 68 moses -12;
#X msg 137 190 color 0 0 -1;
#N canvas 761 238 450 300 digits 0;
#X obj 31 24 inlet;
#X obj 31 103 outlet;
#X obj 31 57 expr 0.01*trunc($f1*100);
#X connect 0 0 2 0;
#X connect 2 0 1 0;
#X restore 38 42 pd digits;
#X obj 38 18 inlet;
#X obj 38 254 outlet;
#X obj 137 91 moses -1;
#X connect 0 0 10 0;
#X connect 1 0 7 0;
#X connect 1 1 0 0;
#X connect 2 0 3 0;
#X connect 2 1 0 0;
#X connect 3 0 10 0;
#X connect 4 0 5 0;
#X connect 4 1 0 0;
#X connect 5 0 10 0;
#X connect 6 0 4 0;
#X connect 6 1 11 0;
#X connect 7 0 10 0;
#X connect 8 0 6 0;
#X connect 9 0 8 0;
#X connect 11 0 1 0;
#X connect 11 1 2 0;
#X restore 253 187 pd ccc;
#N canvas 0 50 393 312 ccc 0;
#X msg 38 221 label \$1dBFS;
#X obj 137 114 t b f;
#X obj 176 114 t b f;
#X msg 203 150 color 0 0 -1.67117e+07;
#X obj 38 91 t b f;
#X msg 18 151 color 0 0 -1;
#X obj 38 68 moses -12;
#X msg 137 190 color 0 0 -1;
#N canvas 761 238 450 300 digits 0;
#X obj 31 24 inlet;
#X obj 31 103 outlet;
#X obj 31 57 expr 0.01*trunc($f1*100);
#X connect 0 0 2 0;
#X connect 2 0 1 0;
#X restore 38 42 pd digits;
#X obj 38 18 inlet;
#X obj 38 254 outlet;
#X obj 137 91 moses -1;
#X connect 0 0 10 0;
#X connect 1 0 7 0;
#X connect 1 1 0 0;
#X connect 2 0 3 0;
#X connect 2 1 0 0;
#X connect 3 0 10 0;
#X connect 4 0 5 0;
#X connect 4 1 0 0;
#X connect 5 0 10 0;
#X connect 6 0 4 0;
#X connect 6 1 11 0;
#X connect 7 0 10 0;
#X connect 8 0 6 0;
#X connect 9 0 8 0;
#X connect 11 0 1 0;
#X connect 11 1 2 0;
#X restore 53 323 pd ccc;
#N canvas 0 50 393 312 ccc 0;
#X msg 38 221 label \$1dBFS;
#X obj 137 114 t b f;
#X obj 176 114 t b f;
#X msg 203 150 color 0 0 -1.67117e+07;
#X obj 38 91 t b f;
#X msg 18 151 color 0 0 -1;
#X obj 38 68 moses -12;
#X msg 137 190 color 0 0 -1;
#N canvas 761 238 450 300 digits 0;
#X obj 31 24 inlet;
#X obj 31 103 outlet;
#X obj 31 57 expr 0.01*trunc($f1*100);
#X connect 0 0 2 0;
#X connect 2 0 1 0;
#X restore 38 42 pd digits;
#X obj 38 18 inlet;
#X obj 38 254 outlet;
#X obj 137 91 moses -1;
#X connect 0 0 10 0;
#X connect 1 0 7 0;
#X connect 1 1 0 0;
#X connect 2 0 3 0;
#X connect 2 1 0 0;
#X connect 3 0 10 0;
#X connect 4 0 5 0;
#X connect 4 1 0 0;
#X connect 5 0 10 0;
#X connect 6 0 4 0;
#X connect 6 1 11 0;
#X connect 7 0 10 0;
#X connect 8 0 6 0;
#X connect 9 0 8 0;
#X connect 11 0 1 0;
#X connect 11 1 2 0;
#X restore 243 323 pd ccc;
#X connect 0 0 2 0;
#X connect 0 0 10 0;
#X connect 1 0 3 0;
#X connect 1 0 11 0;
#X connect 2 0 4 0;
#X connect 3 0 5 0;
#X connect 4 0 6 0;
#X connect 5 0 7 0;
#X connect 6 0 21 0;
#X connect 7 0 22 0;
#X connect 8 0 9 0;
#X connect 9 0 16 0;
#X connect 10 0 12 0;
#X connect 11 0 13 0;
#X connect 12 0 23 0;
#X connect 13 0 24 0;
#X connect 14 0 15 0;
#X connect 15 0 10 1;
#X connect 15 1 11 1;
#X connect 16 0 4 0;
#X connect 16 1 5 0;
#X connect 21 0 17 0;
#X connect 22 0 18 0;
#X connect 23 0 20 0;
#X connect 24 0 19 0;
#X restore 37 251 pd meter;
#N canvas 0 50 644 189 route 0;
#X obj 27 81 else/lin2db;
#X obj 27 106 change;
#X obj 391 57 change;
#X obj 197 55 else/db2lin;
#X obj 27 57 pow 2;
#X obj 197 80 sqrt;
#X obj 27 32 r \$0-sfader2.s;
#X obj 27 131 s \$0-fader2.r;
#X obj 197 31 r \$0-fader2.s;
#X obj 197 107 s \$0-sfader2.r;
#X obj 391 32 r \$0-span2.s;
#X obj 391 82 s \$0-pan2.r;
#X obj 526 33 r \$0-pan2.s;
#X obj 526 58 s \$0-span2.r;
#X connect 0 0 1 0;
#X connect 1 0 7 0;
#X connect 2 0 11 0;
#X connect 3 0 5 0;
#X connect 4 0 0 0;
#X connect 5 0 9 0;
#X connect 6 0 4 0;
#X connect 8 0 3 0;
#X connect 10 0 2 0;
#X connect 12 0 13 0;
#X restore 292 20 pd route;
#X obj 292 75 == 0;
#X obj 292 98 switch~;
#X obj 159 47 r \$0-pan2.s;
#X obj 159 103 r \$0-sfader2.s;
#X obj 292 52 r \$0-mute2.s;
#X connect 0 0 2 0;
#X connect 1 0 2 1;
#X connect 2 0 4 0;
#X connect 2 1 5 0;
#X connect 3 0 2 2;
#X connect 4 0 7 0;
#X connect 4 0 9 0;
#X connect 5 0 8 0;
#X connect 5 0 9 1;
#X connect 6 0 5 1;
#X connect 6 0 4 1;
#X connect 11 0 12 0;
#X connect 13 0 3 0;
#X connect 14 0 6 0;
#X connect 15 0 11 0;
#X restore 142 72 pd dsp;
#X obj 142 49 inlet~;
#X obj 192 49 inlet~;
#N canvas 383 247 427 296 dsp 0;
#X obj 36 47 inlet~;
#X obj 84 47 inlet~;
#X obj 37 103 else/balance~, f 16;
#X obj 159 70 else/float2sig~ 10;
#X obj 37 186 *~;
#X obj 130 186 *~;
#X obj 159 126 else/float2sig~ 10;
#X obj 37 209 outlet~;
#X obj 130 209 outlet~;
#N canvas 89 46 662 462 meter 0;
#X obj 23 96 inlet~;
#X obj 243 96 inlet~;
#X obj 23 119 peakenv~ 300;
#X obj 253 119 peakenv~ 300;
#X obj 23 142 snapshot~;
#X obj 253 142 snapshot~;
#X obj 23 165 else/lin2db;
#X obj 253 165 else/lin2db;
#X obj 23 13 loadbang;
#X obj 23 36 metro 150;
#X obj 53 278 esdf/block.maxpeak~;
#X obj 243 278 esdf/block.maxpeak~;
#X obj 53 301 else/lin2db;
#X obj 243 301 else/lin2db;
#X obj 164 13 r \$0-reset.s;
#X obj 164 36 t b b;
#X obj 23 59 t b b;
#X obj 23 209 s \$0-l0cvs3.r;
#X obj 253 209 s \$0-r0cvs3.r;
#X obj 53 347 s \$0-l1cvs3.r;
#X obj 243 346 s \$0-r1cvs3.r;
#N canvas 0 50 393 312 ccc 0;
#X msg 38 221 label \$1dBFS;
#X obj 137 114 t b f;
#X obj 176 114 t b f;
#X msg 203 150 color 0 0 -1.67117e+07;
#X obj 38 91 t b f;
#X msg 18 151 color 0 0 -1;
#X obj 38 68 moses -12;
#X msg 137 190 color 0 0 -1;
#N canvas 761 238 450 300 digits 0;
#X obj 31 24 inlet;
#X obj 31 103 outlet;
#X obj 31 57 expr 0.01*trunc($f1*100);
#X connect 0 0 2 0;
#X connect 2 0 1 0;
#X restore 38 42 pd digits;
#X obj 38 18 inlet;
#X obj 38 254 outlet;
#X obj 137 91 moses -1;
#X connect 0 0 10 0;
#X connect 1 0 7 0;
#X connect 1 1 0 0;
#X connect 2 0 3 0;
#X connect 2 1 0 0;
#X connect 3 0 10 0;
#X connect 4 0 5 0;
#X connect 4 1 0 0;
#X connect 5 0 10 0;
#X connect 6 0 4 0;
#X connect 6 1 11 0;
#X connect 7 0 10 0;
#X connect 8 0 6 0;
#X connect 9 0 8 0;
#X connect 11 0 1 0;
#X connect 11 1 2 0;
#X restore 23 187 pd ccc;
#N canvas 0 50 393 312 ccc 0;
#X msg 38 221 label \$1dBFS;
#X obj 137 114 t b f;
#X obj 176 114 t b f;
#X msg 203 150 color 0 0 -1.67117e+07;
#X obj 38 91 t b f;
#X msg 18 151 color 0 0 -1;
#X obj 38 68 moses -12;
#X msg 137 190 color 0 0 -1;
#N canvas 761 238 450 300 digits 0;
#X obj 31 24 inlet;
#X obj 31 103 outlet;
#X obj 31 57 expr 0.01*trunc($f1*100);
#X connect 0 0 2 0;
#X connect 2 0 1 0;
#X restore 38 42 pd digits;
#X obj 38 18 inlet;
#X obj 38 254 outlet;
#X obj 137 91 moses -1;
#X connect 0 0 10 0;
#X connect 1 0 7 0;
#X connect 1 1 0 0;
#X connect 2 0 3 0;
#X connect 2 1 0 0;
#X connect 3 0 10 0;
#X connect 4 0 5 0;
#X connect 4 1 0 0;
#X connect 5 0 10 0;
#X connect 6 0 4 0;
#X connect 6 1 11 0;
#X connect 7 0 10 0;
#X connect 8 0 6 0;
#X connect 9 0 8 0;
#X connect 11 0 1 0;
#X connect 11 1 2 0;
#X restore 253 187 pd ccc;
#N canvas 0 50 393 312 ccc 0;
#X msg 38 221 label \$1dBFS;
#X obj 137 114 t b f;
#X obj 176 114 t b f;
#X msg 203 150 color 0 0 -1.67117e+07;
#X obj 38 91 t b f;
#X msg 18 151 color 0 0 -1;
#X obj 38 68 moses -12;
#X msg 137 190 color 0 0 -1;
#N canvas 761 238 450 300 digits 0;
#X obj 31 24 inlet;
#X obj 31 103 outlet;
#X obj 31 57 expr 0.01*trunc($f1*100);
#X connect 0 0 2 0;
#X connect 2 0 1 0;
#X restore 38 42 pd digits;
#X obj 38 18 inlet;
#X obj 38 254 outlet;
#X obj 137 91 moses -1;
#X connect 0 0 10 0;
#X connect 1 0 7 0;
#X connect 1 1 0 0;
#X connect 2 0 3 0;
#X connect 2 1 0 0;
#X connect 3 0 10 0;
#X connect 4 0 5 0;
#X connect 4 1 0 0;
#X connect 5 0 10 0;
#X connect 6 0 4 0;
#X connect 6 1 11 0;
#X connect 7 0 10 0;
#X connect 8 0 6 0;
#X connect 9 0 8 0;
#X connect 11 0 1 0;
#X connect 11 1 2 0;
#X restore 53 323 pd ccc;
#N canvas 0 50 393 312 ccc 0;
#X msg 38 221 label \$1dBFS;
#X obj 137 114 t b f;
#X obj 176 114 t b f;
#X msg 203 150 color 0 0 -1.67117e+07;
#X obj 38 91 t b f;
#X msg 18 151 color 0 0 -1;
#X obj 38 68 moses -12;
#X msg 137 190 color 0 0 -1;
#N canvas 761 238 450 300 digits 0;
#X obj 31 24 inlet;
#X obj 31 103 outlet;
#X obj 31 57 expr 0.01*trunc($f1*100);
#X connect 0 0 2 0;
#X connect 2 0 1 0;
#X restore 38 42 pd digits;
#X obj 38 18 inlet;
#X obj 38 254 outlet;
#X obj 137 91 moses -1;
#X connect 0 0 10 0;
#X connect 1 0 7 0;
#X connect 1 1 0 0;
#X connect 2 0 3 0;
#X connect 2 1 0 0;
#X connect 3 0 10 0;
#X connect 4 0 5 0;
#X connect 4 1 0 0;
#X connect 5 0 10 0;
#X connect 6 0 4 0;
#X connect 6 1 11 0;
#X connect 7 0 10 0;
#X connect 8 0 6 0;
#X connect 9 0 8 0;
#X connect 11 0 1 0;
#X connect 11 1 2 0;
#X restore 243 323 pd ccc;
#X connect 0 0 2 0;
#X connect 0 0 10 0;
#X connect 1 0 3 0;
#X connect 1 0 11 0;
#X connect 2 0 4 0;
#X connect 3 0 5 0;
#X connect 4 0 6 0;
#X connect 5 0 7 0;
#X connect 6 0 21 0;
#X connect 7 0 22 0;
#X connect 8 0 9 0;
#X connect 9 0 16 0;
#X connect 10 0 12 0;
#X connect 11 0 13 0;
#X connect 12 0 23 0;
#X connect 13 0 24 0;
#X connect 14 0 15 0;
#X connect 15 0 10 1;
#X connect 15 1 11 1;
#X connect 16 0 4 0;
#X connect 16 1 5 0;
#X connect 21 0 17 0;
#X connect 22 0 18 0;
#X connect 23 0 19 0;
#X connect 24 0 20 0;
#X restore 37 251 pd meter;
#X obj 159 47 r \$0-pan3.s;
#X obj 159 103 r \$0-sfader3.s;
#N canvas 0 50 644 189 route 0;
#X obj 27 81 else/lin2db;
#X obj 27 106 change;
#X obj 391 57 change;
#X obj 197 55 else/db2lin;
#X obj 27 57 pow 2;
#X obj 197 80 sqrt;
#X obj 27 32 r \$0-sfader3.s;
#X obj 27 131 s \$0-fader3.r;
#X obj 197 31 r \$0-fader3.s;
#X obj 197 107 s \$0-sfader3.r;
#X obj 391 32 r \$0-span3.s;
#X obj 391 82 s \$0-pan3.r;
#X obj 526 33 r \$0-pan3.s;
#X obj 526 58 s \$0-span3.r;
#X connect 0 0 1 0;
#X connect 1 0 7 0;
#X connect 2 0 11 0;
#X connect 3 0 5 0;
#X connect 4 0 0 0;
#X connect 5 0 9 0;
#X connect 6 0 4 0;
#X connect 8 0 3 0;
#X connect 10 0 2 0;
#X connect 12 0 13 0;
#X restore 292 20 pd route;
#X obj 292 75 == 0;
#X obj 292 98 switch~;
#X obj 292 52 r \$0-mute3.s;
#X connect 0 0 2 0;
#X connect 1 0 2 1;
#X connect 2 0 4 0;
#X connect 2 1 5 0;
#X connect 3 0 2 2;
#X connect 4 0 7 0;
#X connect 4 0 9 0;
#X connect 5 0 8 0;
#X connect 5 0 9 1;
#X connect 6 0 5 1;
#X connect 6 0 4 1;
#X connect 10 0 3 0;
#X connect 11 0 6 0;
#X connect 13 0 14 0;
#X connect 15 0 13 0;
#X restore 252 72 pd dsp;
#X obj 252 49 inlet~;
#X obj 302 49 inlet~;
#N canvas 634 185 427 296 dsp 0;
#X obj 36 47 inlet~;
#X obj 84 47 inlet~;
#X obj 37 103 else/balance~, f 16;
#X obj 159 70 else/float2sig~ 10;
#X obj 37 186 *~;
#X obj 130 186 *~;
#X obj 159 126 else/float2sig~ 10;
#X obj 37 209 outlet~;
#X obj 130 209 outlet~;
#N canvas 113 72 662 462 meter 0;
#X obj 23 96 inlet~;
#X obj 243 96 inlet~;
#X obj 23 119 peakenv~ 300;
#X obj 253 119 peakenv~ 300;
#X obj 23 142 snapshot~;
#X obj 253 142 snapshot~;
#X obj 23 165 else/lin2db;
#X obj 253 165 else/lin2db;
#X obj 23 13 loadbang;
#X obj 23 36 metro 150;
#X obj 53 278 esdf/block.maxpeak~;
#X obj 243 278 esdf/block.maxpeak~;
#X obj 53 301 else/lin2db;
#X obj 243 301 else/lin2db;
#X obj 164 13 r \$0-reset.s;
#X obj 164 36 t b b;
#X obj 23 59 t b b;
#X obj 23 209 s \$0-l0cvs4.r;
#X obj 253 209 s \$0-r0cvs4.r;
#X obj 53 347 s \$0-l1cvs4.r;
#X obj 243 346 s \$0-r1cvs4.r;
#N canvas 0 50 393 312 ccc 0;
#X msg 38 221 label \$1dBFS;
#X obj 137 114 t b f;
#X obj 176 114 t b f;
#X msg 203 150 color 0 0 -1.67117e+07;
#X obj 38 91 t b f;
#X msg 18 151 color 0 0 -1;
#X obj 38 68 moses -12;
#X msg 137 190 color 0 0 -1;
#N canvas 761 238 450 300 digits 0;
#X obj 31 24 inlet;
#X obj 31 103 outlet;
#X obj 31 57 expr 0.01*trunc($f1*100);
#X connect 0 0 2 0;
#X connect 2 0 1 0;
#X restore 38 42 pd digits;
#X obj 38 18 inlet;
#X obj 38 254 outlet;
#X obj 137 91 moses -1;
#X connect 0 0 10 0;
#X connect 1 0 7 0;
#X connect 1 1 0 0;
#X connect 2 0 3 0;
#X connect 2 1 0 0;
#X connect 3 0 10 0;
#X connect 4 0 5 0;
#X connect 4 1 0 0;
#X connect 5 0 10 0;
#X connect 6 0 4 0;
#X connect 6 1 11 0;
#X connect 7 0 10 0;
#X connect 8 0 6 0;
#X connect 9 0 8 0;
#X connect 11 0 1 0;
#X connect 11 1 2 0;
#X restore 23 187 pd ccc;
#N canvas 0 50 393 312 ccc 0;
#X msg 38 221 label \$1dBFS;
#X obj 137 114 t b f;
#X obj 176 114 t b f;
#X msg 203 150 color 0 0 -1.67117e+07;
#X obj 38 91 t b f;
#X msg 18 151 color 0 0 -1;
#X obj 38 68 moses -12;
#X msg 137 190 color 0 0 -1;
#N canvas 761 238 450 300 digits 0;
#X obj 31 24 inlet;
#X obj 31 103 outlet;
#X obj 31 57 expr 0.01*trunc($f1*100);
#X connect 0 0 2 0;
#X connect 2 0 1 0;
#X restore 38 42 pd digits;
#X obj 38 18 inlet;
#X obj 38 254 outlet;
#X obj 137 91 moses -1;
#X connect 0 0 10 0;
#X connect 1 0 7 0;
#X connect 1 1 0 0;
#X connect 2 0 3 0;
#X connect 2 1 0 0;
#X connect 3 0 10 0;
#X connect 4 0 5 0;
#X connect 4 1 0 0;
#X connect 5 0 10 0;
#X connect 6 0 4 0;
#X connect 6 1 11 0;
#X connect 7 0 10 0;
#X connect 8 0 6 0;
#X connect 9 0 8 0;
#X connect 11 0 1 0;
#X connect 11 1 2 0;
#X restore 253 187 pd ccc;
#N canvas 0 50 393 312 ccc 0;
#X msg 38 221 label \$1dBFS;
#X obj 137 114 t b f;
#X obj 176 114 t b f;
#X msg 203 150 color 0 0 -1.67117e+07;
#X obj 38 91 t b f;
#X msg 18 151 color 0 0 -1;
#X obj 38 68 moses -12;
#X msg 137 190 color 0 0 -1;
#N canvas 761 238 450 300 digits 0;
#X obj 31 24 inlet;
#X obj 31 103 outlet;
#X obj 31 57 expr 0.01*trunc($f1*100);
#X connect 0 0 2 0;
#X connect 2 0 1 0;
#X restore 38 42 pd digits;
#X obj 38 18 inlet;
#X obj 38 254 outlet;
#X obj 137 91 moses -1;
#X connect 0 0 10 0;
#X connect 1 0 7 0;
#X connect 1 1 0 0;
#X connect 2 0 3 0;
#X connect 2 1 0 0;
#X connect 3 0 10 0;
#X connect 4 0 5 0;
#X connect 4 1 0 0;
#X connect 5 0 10 0;
#X connect 6 0 4 0;
#X connect 6 1 11 0;
#X connect 7 0 10 0;
#X connect 8 0 6 0;
#X connect 9 0 8 0;
#X connect 11 0 1 0;
#X connect 11 1 2 0;
#X restore 53 323 pd ccc;
#N canvas 0 50 393 312 ccc 0;
#X msg 38 221 label \$1dBFS;
#X obj 137 114 t b f;
#X obj 176 114 t b f;
#X msg 203 150 color 0 0 -1.67117e+07;
#X obj 38 91 t b f;
#X msg 18 151 color 0 0 -1;
#X obj 38 68 moses -12;
#X msg 137 190 color 0 0 -1;
#N canvas 761 238 450 300 digits 0;
#X obj 31 24 inlet;
#X obj 31 103 outlet;
#X obj 31 57 expr 0.01*trunc($f1*100);
#X connect 0 0 2 0;
#X connect 2 0 1 0;
#X restore 38 42 pd digits;
#X obj 38 18 inlet;
#X obj 38 254 outlet;
#X obj 137 91 moses -1;
#X connect 0 0 10 0;
#X connect 1 0 7 0;
#X connect 1 1 0 0;
#X connect 2 0 3 0;
#X connect 2 1 0 0;
#X connect 3 0 10 0;
#X connect 4 0 5 0;
#X connect 4 1 0 0;
#X connect 5 0 10 0;
#X connect 6 0 4 0;
#X connect 6 1 11 0;
#X connect 7 0 10 0;
#X connect 8 0 6 0;
#X connect 9 0 8 0;
#X connect 11 0 1 0;
#X connect 11 1 2 0;
#X restore 243 323 pd ccc;
#X connect 0 0 2 0;
#X connect 0 0 10 0;
#X connect 1 0 3 0;
#X connect 1 0 11 0;
#X connect 2 0 4 0;
#X connect 3 0 5 0;
#X connect 4 0 6 0;
#X connect 5 0 7 0;
#X connect 6 0 21 0;
#X connect 7 0 22 0;
#X connect 8 0 9 0;
#X connect 9 0 16 0;
#X connect 10 0 12 0;
#X connect 11 0 13 0;
#X connect 12 0 23 0;
#X connect 13 0 24 0;
#X connect 14 0 15 0;
#X connect 15 0 10 1;
#X connect 15 1 11 1;
#X connect 16 0 4 0;
#X connect 16 1 5 0;
#X connect 21 0 17 0;
#X connect 22 0 18 0;
#X connect 23 0 19 0;
#X connect 24 0 20 0;
#X restore 37 251 pd meter;
#X obj 159 47 r \$0-pan4.s;
#X obj 159 103 r \$0-sfader4.s;
#N canvas 0 50 644 189 route 0;
#X obj 27 81 else/lin2db;
#X obj 27 106 change;
#X obj 391 57 change;
#X obj 197 55 else/db2lin;
#X obj 27 57 pow 2;
#X obj 197 80 sqrt;
#X obj 27 32 r \$0-sfader4.s;
#X obj 27 131 s \$0-fader4.r;
#X obj 197 31 r \$0-fader4.s;
#X obj 197 107 s \$0-sfader4.r;
#X obj 391 32 r \$0-span4.s;
#X obj 391 82 s \$0-pan4.r;
#X obj 526 33 r \$0-pan4.s;
#X obj 526 58 s \$0-span4.r;
#X connect 0 0 1 0;
#X connect 1 0 7 0;
#X connect 2 0 11 0;
#X connect 3 0 5 0;
#X connect 4 0 0 0;
#X connect 5 0 9 0;
#X connect 6 0 4 0;
#X connect 8 0 3 0;
#X connect 10 0 2 0;
#X connect 12 0 13 0;
#X restore 292 20 pd route;
#X obj 292 75 == 0;
#X obj 292 98 switch~;
#X obj 292 52 r \$0-mute4.s;
#X connect 0 0 2 0;
#X connect 1 0 2 1;
#X connect 2 0 4 0;
#X connect 2 1 5 0;
#X connect 3 0 2 2;
#X connect 4 0 7 0;
#X connect 4 0 9 0;
#X connect 5 0 8 0;
#X connect 5 0 9 1;
#X connect 6 0 5 1;
#X connect 6 0 4 1;
#X connect 10 0 3 0;
#X connect 11 0 6 0;
#X connect 13 0 14 0;
#X connect 15 0 13 0;
#X restore 362 72 pd dsp;
#X obj 362 49 inlet~;
#X obj 412 49 inlet~;
#N canvas 383 247 427 296 dsp 0;
#X obj 36 47 inlet~;
#X obj 84 47 inlet~;
#X obj 37 103 else/balance~, f 16;
#X obj 159 70 else/float2sig~ 10;
#X obj 37 186 *~;
#X obj 130 186 *~;
#X obj 159 126 else/float2sig~ 10;
#X obj 37 209 outlet~;
#X obj 130 209 outlet~;
#N canvas 230 131 662 462 meter 0;
#X obj 23 96 inlet~;
#X obj 243 96 inlet~;
#X obj 23 119 peakenv~ 300;
#X obj 253 119 peakenv~ 300;
#X obj 23 142 snapshot~;
#X obj 253 142 snapshot~;
#X obj 23 165 else/lin2db;
#X obj 253 165 else/lin2db;
#X obj 23 13 loadbang;
#X obj 23 36 metro 150;
#X obj 53 278 esdf/block.maxpeak~;
#X obj 243 278 esdf/block.maxpeak~;
#X obj 53 301 else/lin2db;
#X obj 243 301 else/lin2db;
#X obj 164 13 r \$0-reset.s;
#X obj 164 36 t b b;
#X obj 23 59 t b b;
#X obj 23 209 s \$0-l0cvs5.r;
#X obj 253 209 s \$0-r0cvs5.r;
#X obj 53 347 s \$0-l1cvs5.r;
#X obj 243 346 s \$0-r1cvs5.r;
#N canvas 0 50 393 312 ccc 0;
#X msg 38 221 label \$1dBFS;
#X obj 137 114 t b f;
#X obj 176 114 t b f;
#X msg 203 150 color 0 0 -1.67117e+07;
#X obj 38 91 t b f;
#X msg 18 151 color 0 0 -1;
#X obj 38 68 moses -12;
#X msg 137 190 color 0 0 -1;
#N canvas 761 238 450 300 digits 0;
#X obj 31 24 inlet;
#X obj 31 103 outlet;
#X obj 31 57 expr 0.01*trunc($f1*100);
#X connect 0 0 2 0;
#X connect 2 0 1 0;
#X restore 38 42 pd digits;
#X obj 38 18 inlet;
#X obj 38 254 outlet;
#X obj 137 91 moses -1;
#X connect 0 0 10 0;
#X connect 1 0 7 0;
#X connect 1 1 0 0;
#X connect 2 0 3 0;
#X connect 2 1 0 0;
#X connect 3 0 10 0;
#X connect 4 0 5 0;
#X connect 4 1 0 0;
#X connect 5 0 10 0;
#X connect 6 0 4 0;
#X connect 6 1 11 0;
#X connect 7 0 10 0;
#X connect 8 0 6 0;
#X connect 9 0 8 0;
#X connect 11 0 1 0;
#X connect 11 1 2 0;
#X restore 23 187 pd ccc;
#N canvas 0 50 393 312 ccc 0;
#X msg 38 221 label \$1dBFS;
#X obj 137 114 t b f;
#X obj 176 114 t b f;
#X msg 203 150 color 0 0 -1.67117e+07;
#X obj 38 91 t b f;
#X msg 18 151 color 0 0 -1;
#X obj 38 68 moses -12;
#X msg 137 190 color 0 0 -1;
#N canvas 761 238 450 300 digits 0;
#X obj 31 24 inlet;
#X obj 31 103 outlet;
#X obj 31 57 expr 0.01*trunc($f1*100);
#X connect 0 0 2 0;
#X connect 2 0 1 0;
#X restore 38 42 pd digits;
#X obj 38 18 inlet;
#X obj 38 254 outlet;
#X obj 137 91 moses -1;
#X connect 0 0 10 0;
#X connect 1 0 7 0;
#X connect 1 1 0 0;
#X connect 2 0 3 0;
#X connect 2 1 0 0;
#X connect 3 0 10 0;
#X connect 4 0 5 0;
#X connect 4 1 0 0;
#X connect 5 0 10 0;
#X connect 6 0 4 0;
#X connect 6 1 11 0;
#X connect 7 0 10 0;
#X connect 8 0 6 0;
#X connect 9 0 8 0;
#X connect 11 0 1 0;
#X connect 11 1 2 0;
#X restore 253 187 pd ccc;
#N canvas 0 50 393 312 ccc 0;
#X msg 38 221 label \$1dBFS;
#X obj 137 114 t b f;
#X obj 176 114 t b f;
#X msg 203 150 color 0 0 -1.67117e+07;
#X obj 38 91 t b f;
#X msg 18 151 color 0 0 -1;
#X obj 38 68 moses -12;
#X msg 137 190 color 0 0 -1;
#N canvas 761 238 450 300 digits 0;
#X obj 31 24 inlet;
#X obj 31 103 outlet;
#X obj 31 57 expr 0.01*trunc($f1*100);
#X connect 0 0 2 0;
#X connect 2 0 1 0;
#X restore 38 42 pd digits;
#X obj 38 18 inlet;
#X obj 38 254 outlet;
#X obj 137 91 moses -1;
#X connect 0 0 10 0;
#X connect 1 0 7 0;
#X connect 1 1 0 0;
#X connect 2 0 3 0;
#X connect 2 1 0 0;
#X connect 3 0 10 0;
#X connect 4 0 5 0;
#X connect 4 1 0 0;
#X connect 5 0 10 0;
#X connect 6 0 4 0;
#X connect 6 1 11 0;
#X connect 7 0 10 0;
#X connect 8 0 6 0;
#X connect 9 0 8 0;
#X connect 11 0 1 0;
#X connect 11 1 2 0;
#X restore 53 323 pd ccc;
#N canvas 0 50 393 312 ccc 0;
#X msg 38 221 label \$1dBFS;
#X obj 137 114 t b f;
#X obj 176 114 t b f;
#X msg 203 150 color 0 0 -1.67117e+07;
#X obj 38 91 t b f;
#X msg 18 151 color 0 0 -1;
#X obj 38 68 moses -12;
#X msg 137 190 color 0 0 -1;
#N canvas 761 238 450 300 digits 0;
#X obj 31 24 inlet;
#X obj 31 103 outlet;
#X obj 31 57 expr 0.01*trunc($f1*100);
#X connect 0 0 2 0;
#X connect 2 0 1 0;
#X restore 38 42 pd digits;
#X obj 38 18 inlet;
#X obj 38 254 outlet;
#X obj 137 91 moses -1;
#X connect 0 0 10 0;
#X connect 1 0 7 0;
#X connect 1 1 0 0;
#X connect 2 0 3 0;
#X connect 2 1 0 0;
#X connect 3 0 10 0;
#X connect 4 0 5 0;
#X connect 4 1 0 0;
#X connect 5 0 10 0;
#X connect 6 0 4 0;
#X connect 6 1 11 0;
#X connect 7 0 10 0;
#X connect 8 0 6 0;
#X connect 9 0 8 0;
#X connect 11 0 1 0;
#X connect 11 1 2 0;
#X restore 243 323 pd ccc;
#X connect 0 0 2 0;
#X connect 0 0 10 0;
#X connect 1 0 3 0;
#X connect 1 0 11 0;
#X connect 2 0 4 0;
#X connect 3 0 5 0;
#X connect 4 0 6 0;
#X connect 5 0 7 0;
#X connect 6 0 21 0;
#X connect 7 0 22 0;
#X connect 8 0 9 0;
#X connect 9 0 16 0;
#X connect 10 0 12 0;
#X connect 11 0 13 0;
#X connect 12 0 23 0;
#X connect 13 0 24 0;
#X connect 14 0 15 0;
#X connect 15 0 10 1;
#X connect 15 1 11 1;
#X connect 16 0 4 0;
#X connect 16 1 5 0;
#X connect 21 0 17 0;
#X connect 22 0 18 0;
#X connect 23 0 19 0;
#X connect 24 0 20 0;
#X restore 37 251 pd meter;
#X obj 159 47 r \$0-pan5.s;
#X obj 159 103 r \$0-sfader5.s;
#N canvas 0 50 644 189 route 0;
#X obj 27 81 else/lin2db;
#X obj 27 106 change;
#X obj 391 57 change;
#X obj 197 55 else/db2lin;
#X obj 27 57 pow 2;
#X obj 197 80 sqrt;
#X obj 27 32 r \$0-sfader5.s;
#X obj 27 131 s \$0-fader5.r;
#X obj 197 31 r \$0-fader5.s;
#X obj 197 107 s \$0-sfader5.r;
#X obj 391 32 r \$0-span5.s;
#X obj 391 82 s \$0-pan5.r;
#X obj 526 33 r \$0-pan5.s;
#X obj 526 58 s \$0-span5.r;
#X connect 0 0 1 0;
#X connect 1 0 7 0;
#X connect 2 0 11 0;
#X connect 3 0 5 0;
#X connect 4 0 0 0;
#X connect 5 0 9 0;
#X connect 6 0 4 0;
#X connect 8 0 3 0;
#X connect 10 0 2 0;
#X connect 12 0 13 0;
#X restore 292 20 pd route;
#X obj 292 75 == 0;
#X obj 292 98 switch~;
#X obj 292 52 r \$0-mute5.s;
#X connect 0 0 2 0;
#X connect 1 0 2 1;
#X connect 2 0 4 0;
#X connect 2 1 5 0;
#X connect 3 0 2 2;
#X connect 4 0 7 0;
#X connect 4 0 9 0;
#X connect 5 0 8 0;
#X connect 5 0 9 1;
#X connect 6 0 5 1;
#X connect 6 0 4 1;
#X connect 10 0 3 0;
#X connect 11 0 6 0;
#X connect 13 0 14 0;
#X connect 15 0 13 0;
#X restore 472 72 pd dsp;
#X obj 472 49 inlet~;
#X obj 522 49 inlet~;
#N canvas 383 247 427 296 dsp 0;
#X obj 36 47 inlet~;
#X obj 84 47 inlet~;
#X obj 37 103 else/balance~, f 16;
#X obj 159 70 else/float2sig~ 10;
#X obj 37 186 *~;
#X obj 130 186 *~;
#X obj 159 126 else/float2sig~ 10;
#X obj 37 209 outlet~;
#X obj 130 209 outlet~;
#N canvas 67 97 662 462 meter 0;
#X obj 23 96 inlet~;
#X obj 243 96 inlet~;
#X obj 23 119 peakenv~ 300;
#X obj 253 119 peakenv~ 300;
#X obj 23 142 snapshot~;
#X obj 253 142 snapshot~;
#X obj 23 165 else/lin2db;
#X obj 253 165 else/lin2db;
#X obj 23 13 loadbang;
#X obj 23 36 metro 150;
#X obj 53 278 esdf/block.maxpeak~;
#X obj 243 278 esdf/block.maxpeak~;
#X obj 53 301 else/lin2db;
#X obj 243 301 else/lin2db;
#X obj 164 13 r \$0-reset.s;
#X obj 164 36 t b b;
#X obj 23 59 t b b;
#X obj 23 209 s \$0-l0cvs6.r;
#X obj 253 209 s \$0-r0cvs6.r;
#X obj 53 347 s \$0-l1cvs6.r;
#X obj 243 346 s \$0-r1cvs6.r;
#N canvas 0 50 393 312 ccc 0;
#X msg 38 221 label \$1dBFS;
#X obj 137 114 t b f;
#X obj 176 114 t b f;
#X msg 203 150 color 0 0 -1.67117e+07;
#X obj 38 91 t b f;
#X msg 18 151 color 0 0 -1;
#X obj 38 68 moses -12;
#X msg 137 190 color 0 0 -1;
#N canvas 761 238 450 300 digits 0;
#X obj 31 24 inlet;
#X obj 31 103 outlet;
#X obj 31 57 expr 0.01*trunc($f1*100);
#X connect 0 0 2 0;
#X connect 2 0 1 0;
#X restore 38 42 pd digits;
#X obj 38 18 inlet;
#X obj 38 254 outlet;
#X obj 137 91 moses -1;
#X connect 0 0 10 0;
#X connect 1 0 7 0;
#X connect 1 1 0 0;
#X connect 2 0 3 0;
#X connect 2 1 0 0;
#X connect 3 0 10 0;
#X connect 4 0 5 0;
#X connect 4 1 0 0;
#X connect 5 0 10 0;
#X connect 6 0 4 0;
#X connect 6 1 11 0;
#X connect 7 0 10 0;
#X connect 8 0 6 0;
#X connect 9 0 8 0;
#X connect 11 0 1 0;
#X connect 11 1 2 0;
#X restore 23 187 pd ccc;
#N canvas 0 50 393 312 ccc 0;
#X msg 38 221 label \$1dBFS;
#X obj 137 114 t b f;
#X obj 176 114 t b f;
#X msg 203 150 color 0 0 -1.67117e+07;
#X obj 38 91 t b f;
#X msg 18 151 color 0 0 -1;
#X obj 38 68 moses -12;
#X msg 137 190 color 0 0 -1;
#N canvas 761 238 450 300 digits 0;
#X obj 31 24 inlet;
#X obj 31 103 outlet;
#X obj 31 57 expr 0.01*trunc($f1*100);
#X connect 0 0 2 0;
#X connect 2 0 1 0;
#X restore 38 42 pd digits;
#X obj 38 18 inlet;
#X obj 38 254 outlet;
#X obj 137 91 moses -1;
#X connect 0 0 10 0;
#X connect 1 0 7 0;
#X connect 1 1 0 0;
#X connect 2 0 3 0;
#X connect 2 1 0 0;
#X connect 3 0 10 0;
#X connect 4 0 5 0;
#X connect 4 1 0 0;
#X connect 5 0 10 0;
#X connect 6 0 4 0;
#X connect 6 1 11 0;
#X connect 7 0 10 0;
#X connect 8 0 6 0;
#X connect 9 0 8 0;
#X connect 11 0 1 0;
#X connect 11 1 2 0;
#X restore 253 187 pd ccc;
#N canvas 0 50 393 312 ccc 0;
#X msg 38 221 label \$1dBFS;
#X obj 137 114 t b f;
#X obj 176 114 t b f;
#X msg 203 150 color 0 0 -1.67117e+07;
#X obj 38 91 t b f;
#X msg 18 151 color 0 0 -1;
#X obj 38 68 moses -12;
#X msg 137 190 color 0 0 -1;
#N canvas 761 238 450 300 digits 0;
#X obj 31 24 inlet;
#X obj 31 103 outlet;
#X obj 31 57 expr 0.01*trunc($f1*100);
#X connect 0 0 2 0;
#X connect 2 0 1 0;
#X restore 38 42 pd digits;
#X obj 38 18 inlet;
#X obj 38 254 outlet;
#X obj 137 91 moses -1;
#X connect 0 0 10 0;
#X connect 1 0 7 0;
#X connect 1 1 0 0;
#X connect 2 0 3 0;
#X connect 2 1 0 0;
#X connect 3 0 10 0;
#X connect 4 0 5 0;
#X connect 4 1 0 0;
#X connect 5 0 10 0;
#X connect 6 0 4 0;
#X connect 6 1 11 0;
#X connect 7 0 10 0;
#X connect 8 0 6 0;
#X connect 9 0 8 0;
#X connect 11 0 1 0;
#X connect 11 1 2 0;
#X restore 53 323 pd ccc;
#N canvas 0 50 393 312 ccc 0;
#X msg 38 221 label \$1dBFS;
#X obj 137 114 t b f;
#X obj 176 114 t b f;
#X msg 203 150 color 0 0 -1.67117e+07;
#X obj 38 91 t b f;
#X msg 18 151 color 0 0 -1;
#X obj 38 68 moses -12;
#X msg 137 190 color 0 0 -1;
#N canvas 761 238 450 300 digits 0;
#X obj 31 24 inlet;
#X obj 31 103 outlet;
#X obj 31 57 expr 0.01*trunc($f1*100);
#X connect 0 0 2 0;
#X connect 2 0 1 0;
#X restore 38 42 pd digits;
#X obj 38 18 inlet;
#X obj 38 254 outlet;
#X obj 137 91 moses -1;
#X connect 0 0 10 0;
#X connect 1 0 7 0;
#X connect 1 1 0 0;
#X connect 2 0 3 0;
#X connect 2 1 0 0;
#X connect 3 0 10 0;
#X connect 4 0 5 0;
#X connect 4 1 0 0;
#X connect 5 0 10 0;
#X connect 6 0 4 0;
#X connect 6 1 11 0;
#X connect 7 0 10 0;
#X connect 8 0 6 0;
#X connect 9 0 8 0;
#X connect 11 0 1 0;
#X connect 11 1 2 0;
#X restore 243 323 pd ccc;
#X connect 0 0 2 0;
#X connect 0 0 10 0;
#X connect 1 0 3 0;
#X connect 1 0 11 0;
#X connect 2 0 4 0;
#X connect 3 0 5 0;
#X connect 4 0 6 0;
#X connect 5 0 7 0;
#X connect 6 0 21 0;
#X connect 7 0 22 0;
#X connect 8 0 9 0;
#X connect 9 0 16 0;
#X connect 10 0 12 0;
#X connect 11 0 13 0;
#X connect 12 0 23 0;
#X connect 13 0 24 0;
#X connect 14 0 15 0;
#X connect 15 0 10 1;
#X connect 15 1 11 1;
#X connect 16 0 4 0;
#X connect 16 1 5 0;
#X connect 21 0 17 0;
#X connect 22 0 18 0;
#X connect 23 0 19 0;
#X connect 24 0 20 0;
#X restore 37 251 pd meter;
#X obj 159 47 r \$0-pan6.s;
#X obj 159 103 r \$0-sfader6.s;
#N canvas 0 50 644 189 route 0;
#X obj 27 81 else/lin2db;
#X obj 27 106 change;
#X obj 391 57 change;
#X obj 197 55 else/db2lin;
#X obj 27 57 pow 2;
#X obj 197 80 sqrt;
#X obj 27 32 r \$0-sfader6.s;
#X obj 27 131 s \$0-fader6.r;
#X obj 197 31 r \$0-fader6.s;
#X obj 197 107 s \$0-sfader6.r;
#X obj 391 32 r \$0-span6.s;
#X obj 391 82 s \$0-pan6.r;
#X obj 526 33 r \$0-pan6.s;
#X obj 526 58 s \$0-span6.r;
#X connect 0 0 1 0;
#X connect 1 0 7 0;
#X connect 2 0 11 0;
#X connect 3 0 5 0;
#X connect 4 0 0 0;
#X connect 5 0 9 0;
#X connect 6 0 4 0;
#X connect 8 0 3 0;
#X connect 10 0 2 0;
#X connect 12 0 13 0;
#X restore 292 20 pd route;
#X obj 292 75 == 0;
#X obj 292 98 switch~;
#X obj 292 52 r \$0-mute6.s;
#X connect 0 0 2 0;
#X connect 1 0 2 1;
#X connect 2 0 4 0;
#X connect 2 1 5 0;
#X connect 3 0 2 2;
#X connect 4 0 7 0;
#X connect 4 0 9 0;
#X connect 5 0 8 0;
#X connect 5 0 9 1;
#X connect 6 0 5 1;
#X connect 6 0 4 1;
#X connect 10 0 3 0;
#X connect 11 0 6 0;
#X connect 13 0 14 0;
#X connect 15 0 13 0;
#X restore 582 72 pd dsp;
#X obj 582 49 inlet~;
#X obj 632 49 inlet~;
#N canvas 253 186 450 300 mdsp 0;
#X obj 31 29 inlet~;
#X obj 79 29 inlet~;
#X obj 32 85 else/balance~, f 16;
#X obj 154 29 r \$0-pan.s;
#X obj 154 52 else/float2sig~ 10;
#X obj 32 168 *~;
#X obj 125 168 *~;
#X obj 154 108 else/float2sig~ 10;
#X obj 154 85 r \$0-sfader.s;
#X obj 32 191 outlet~;
#X obj 125 191 outlet~;
#N canvas 103 125 341 567 meter 0;
#X obj 23 66 inlet~;
#X obj 213 66 inlet~;
#X obj 23 89 peakenv~ 300;
#X obj 213 89 peakenv~ 300;
#X obj 23 112 snapshot~;
#X obj 213 112 snapshot~;
#X obj 23 135 else/lin2db;
#X obj 213 135 else/lin2db;
#X obj 23 13 loadbang;
#X obj 23 36 metro 150;
#X obj 83 241 r \$0-reset.s;
#X obj 83 287 esdf/ebur128~;
#X msg 83 264 reset;
#N canvas 0 50 393 312 ccc 0;
#X msg 38 221 label \$1dBFS;
#X obj 137 114 t b f;
#X obj 176 114 t b f;
#X msg 203 150 color 0 0 -1.67117e+07;
#X obj 38 91 t b f;
#X msg 18 151 color 0 0 -1;
#X obj 38 68 moses -12;
#X msg 137 190 color 0 0 -1;
#N canvas 761 238 450 300 digits 0;
#X obj 31 24 inlet;
#X obj 31 103 outlet;
#X obj 31 57 expr 0.01*trunc($f1*100);
#X connect 0 0 2 0;
#X connect 2 0 1 0;
#X restore 38 42 pd digits;
#X obj 38 18 inlet;
#X obj 38 254 outlet;
#X obj 137 91 moses -1;
#X connect 0 0 10 0;
#X connect 1 0 7 0;
#X connect 1 1 0 0;
#X connect 2 0 3 0;
#X connect 2 1 0 0;
#X connect 3 0 10 0;
#X connect 4 0 5 0;
#X connect 4 1 0 0;
#X connect 5 0 10 0;
#X connect 6 0 4 0;
#X connect 6 1 11 0;
#X connect 7 0 10 0;
#X connect 8 0 6 0;
#X connect 9 0 8 0;
#X connect 11 0 1 0;
#X connect 11 1 2 0;
#X restore 23 159 pd ccc;
#N canvas 0 50 393 312 ccc 0;
#X msg 38 221 label \$1dBFS;
#X obj 137 114 t b f;
#X obj 176 114 t b f;
#X msg 203 150 color 0 0 -1.67117e+07;
#X obj 38 91 t b f;
#X msg 18 151 color 0 0 -1;
#X obj 38 68 moses -12;
#X msg 137 190 color 0 0 -1;
#N canvas 761 238 450 300 digits 0;
#X obj 31 24 inlet;
#X obj 31 103 outlet;
#X obj 31 57 expr 0.01*trunc($f1*100);
#X connect 0 0 2 0;
#X connect 2 0 1 0;
#X restore 38 42 pd digits;
#X obj 38 18 inlet;
#X obj 38 254 outlet;
#X obj 137 91 moses -1;
#X connect 0 0 10 0;
#X connect 1 0 7 0;
#X connect 1 1 0 0;
#X connect 2 0 3 0;
#X connect 2 1 0 0;
#X connect 3 0 10 0;
#X connect 4 0 5 0;
#X connect 4 1 0 0;
#X connect 5 0 10 0;
#X connect 6 0 4 0;
#X connect 6 1 11 0;
#X connect 7 0 10 0;
#X connect 8 0 6 0;
#X connect 9 0 8 0;
#X connect 11 0 1 0;
#X connect 11 1 2 0;
#X restore 213 159 pd ccc;
#X obj 23 182 s \$0-l0cvs.r;
#X obj 213 182 s \$0-r0cvs.r;
#N canvas 0 50 393 312 ccc 0;
#X msg 38 221 label \$1dBFS;
#X obj 137 114 t b f;
#X obj 176 114 t b f;
#X msg 203 150 color 0 0 -1.67117e+07;
#X obj 38 91 t b f;
#X msg 18 151 color 0 0 -1;
#X obj 38 68 moses -12;
#X msg 137 190 color 0 0 -1;
#N canvas 761 238 450 300 digits 0;
#X obj 31 24 inlet;
#X obj 31 103 outlet;
#X obj 31 57 expr 0.01*trunc($f1*100);
#X connect 0 0 2 0;
#X connect 2 0 1 0;
#X restore 38 42 pd digits;
#X obj 38 18 inlet;
#X obj 38 254 outlet;
#X obj 137 91 moses -1;
#X connect 0 0 10 0;
#X connect 1 0 7 0;
#X connect 1 1 0 0;
#X connect 2 0 3 0;
#X connect 2 1 0 0;
#X connect 3 0 10 0;
#X connect 4 0 5 0;
#X connect 4 1 0 0;
#X connect 5 0 10 0;
#X connect 6 0 4 0;
#X connect 6 1 11 0;
#X connect 7 0 10 0;
#X connect 8 0 6 0;
#X connect 9 0 8 0;
#X connect 11 0 1 0;
#X connect 11 1 2 0;
#X restore 83 314 pd ccc;
#N canvas 0 50 393 312 ccc 0;
#X msg 38 221 label \$1dBFS;
#X obj 137 114 t b f;
#X obj 176 114 t b f;
#X msg 203 150 color 0 0 -1.67117e+07;
#X obj 38 91 t b f;
#X msg 18 151 color 0 0 -1;
#X obj 38 68 moses -12;
#X msg 137 190 color 0 0 -1;
#N canvas 761 238 450 300 digits 0;
#X obj 31 24 inlet;
#X obj 31 103 outlet;
#X obj 31 57 expr 0.01*trunc($f1*100);
#X connect 0 0 2 0;
#X connect 2 0 1 0;
#X restore 38 42 pd digits;
#X obj 38 18 inlet;
#X obj 38 254 outlet;
#X obj 137 91 moses -1;
#X connect 0 0 10 0;
#X connect 1 0 7 0;
#X connect 1 1 0 0;
#X connect 2 0 3 0;
#X connect 2 1 0 0;
#X connect 3 0 10 0;
#X connect 4 0 5 0;
#X connect 4 1 0 0;
#X connect 5 0 10 0;
#X connect 6 0 4 0;
#X connect 6 1 11 0;
#X connect 7 0 10 0;
#X connect 8 0 6 0;
#X connect 9 0 8 0;
#X connect 11 0 1 0;
#X connect 11 1 2 0;
#X restore 108 361 pd ccc;
#X obj 83 337 s \$0-l1cvs.r;
#X obj 108 384 s \$0-r1cvs.r;
#N canvas 0 50 393 312 ccc 0;
#X obj 137 114 t b f;
#X obj 176 114 t b f;
#X msg 203 150 color 0 0 -1.67117e+07;
#X obj 38 91 t b f;
#X msg 18 151 color 0 0 -1;
#X msg 137 190 color 0 0 -1;
#N canvas 761 238 450 300 digits 0;
#X obj 31 24 inlet;
#X obj 31 103 outlet;
#X obj 31 57 expr 0.01*trunc($f1*100);
#X connect 0 0 2 0;
#X connect 2 0 1 0;
#X restore 38 42 pd digits;
#X obj 38 18 inlet;
#X obj 38 254 outlet;
#X msg 38 221 label \$1LUFS;
#X obj 137 91 moses -8;
#X obj 38 68 moses -18;
#X connect 0 0 5 0;
#X connect 0 1 9 0;
#X connect 1 0 2 0;
#X connect 1 1 9 0;
#X connect 2 0 8 0;
#X connect 3 0 4 0;
#X connect 3 1 9 0;
#X connect 4 0 8 0;
#X connect 5 0 8 0;
#X connect 6 0 11 0;
#X connect 7 0 6 0;
#X connect 9 0 8 0;
#X connect 10 0 0 0;
#X connect 10 1 1 0;
#X connect 11 0 3 0;
#X connect 11 1 10 0;
#X restore 133 409 pd ccc;
#X obj 133 432 s \$0-mcvs.r;
#N canvas 0 50 393 312 ccc 0;
#X obj 137 114 t b f;
#X obj 176 114 t b f;
#X msg 203 150 color 0 0 -1.67117e+07;
#X obj 38 91 t b f;
#X msg 18 151 color 0 0 -1;
#X msg 137 190 color 0 0 -1;
#N canvas 761 238 450 300 digits 0;
#X obj 31 24 inlet;
#X obj 31 103 outlet;
#X obj 31 57 expr 0.01*trunc($f1*100);
#X connect 0 0 2 0;
#X connect 2 0 1 0;
#X restore 38 42 pd digits;
#X obj 38 18 inlet;
#X obj 38 254 outlet;
#X msg 38 221 label \$1LUFS;
#X obj 137 91 moses -8;
#X obj 38 68 moses -18;
#X connect 0 0 5 0;
#X connect 0 1 9 0;
#X connect 1 0 2 0;
#X connect 1 1 9 0;
#X connect 2 0 8 0;
#X connect 3 0 4 0;
#X connect 3 1 9 0;
#X connect 4 0 8 0;
#X connect 5 0 8 0;
#X connect 6 0 11 0;
#X connect 7 0 6 0;
#X connect 9 0 8 0;
#X connect 10 0 0 0;
#X connect 10 1 1 0;
#X connect 11 0 3 0;
#X connect 11 1 10 0;
#X restore 158 454 pd ccc;
#X obj 158 476 s \$0-scvs.r;
#X connect 0 0 2 0;
#X connect 0 0 11 0;
#X connect 1 0 3 0;
#X connect 1 0 11 1;
#X connect 2 0 4 0;
#X connect 3 0 5 0;
#X connect 4 0 6 0;
#X connect 5 0 7 0;
#X connect 6 0 13 0;
#X connect 7 0 14 0;
#X connect 8 0 9 0;
#X connect 9 0 5 0;
#X connect 9 0 4 0;
#X connect 9 0 11 0;
#X connect 10 0 12 0;
#X connect 11 0 17 0;
#X connect 11 1 18 0;
#X connect 11 2 21 0;
#X connect 11 3 23 0;
#X connect 12 0 11 0;
#X connect 13 0 15 0;
#X connect 14 0 16 0;
#X connect 17 0 19 0;
#X connect 18 0 20 0;
#X connect 21 0 22 0;
#X connect 23 0 24 0;
#X restore 32 233 pd meter;
#N canvas 0 50 644 189 route 0;
#X obj 27 32 r \$0-sfader.s;
#X obj 27 81 else/lin2db;
#X obj 27 106 change;
#X obj 197 107 s \$0-sfader.r;
#X obj 391 32 r \$0-span.s;
#X obj 391 57 change;
#X obj 526 58 s \$0-span.r;
#X obj 197 55 else/db2lin;
#X obj 27 57 pow 2;
#X obj 197 80 sqrt;
#X obj 197 31 r \$0-fader.s;
#X obj 27 131 s \$0-fader.r;
#X obj 391 82 s \$0-pan.r;
#X obj 526 33 r \$0-pan.s;
#X connect 0 0 8 0;
#X connect 1 0 2 0;
#X connect 2 0 11 0;
#X connect 4 0 5 0;
#X connect 5 0 12 0;
#X connect 7 0 9 0;
#X connect 8 0 1 0;
#X connect 9 0 3 0;
#X connect 10 0 7 0;
#X connect 13 0 6 0;
#X restore 319 27 pd route;
#X obj 319 54 r \$0-mute.s;
#X obj 319 77 == 0;
#X obj 319 100 switch~;
#X connect 0 0 2 0;
#X connect 1 0 2 1;
#X connect 2 0 5 0;
#X connect 2 1 6 0;
#X connect 3 0 4 0;
#X connect 4 0 2 2;
#X connect 5 0 9 0;
#X connect 5 0 11 0;
#X connect 6 0 10 0;
#X connect 6 0 11 1;
#X connect 7 0 6 1;
#X connect 7 0 5 1;
#X connect 8 0 7 0;
#X connect 13 0 14 0;
#X connect 14 0 15 0;
#X restore 32 188 pd mdsp;
#X f 74;
#X obj 1005 246 esdf/state.param \$0 fader;
#X obj 1005 268 esdf/state.param \$0 pan;
#X obj 1005 292 esdf/state.param \$0 mute;
#X obj 1005 316 esdf/state.param \$0 fade1;
#X obj 1005 338 esdf/state.param \$0 pan1;
#X obj 1005 362 esdf/state.param \$0 mute1;
#X obj 1005 386 esdf/state.param \$0 fader2;
#X obj 1005 408 esdf/state.param \$0 pan2;
#X obj 1005 432 esdf/state.param \$0 mute2;
#X obj 1005 456 esdf/state.param \$0 fader3;
#X obj 1005 478 esdf/state.param \$0 pan3;
#X obj 1005 502 esdf/state.param \$0 mute3;
#X obj 1005 526 esdf/state.param \$0 fader4;
#X obj 1005 548 esdf/state.param \$0 pan4;
#X obj 1005 572 esdf/state.param \$0 mute4;
#X obj 1005 595 esdf/state.param \$0 fader5;
#X obj 1005 618 esdf/state.param \$0 pan5;
#X obj 1005 642 esdf/state.param \$0 mute5;
#X obj 1005 666 esdf/state.param \$0 fader6;
#X obj 1005 688 esdf/state.param \$0 pan6;
#X obj 1005 712 esdf/state.param \$0 mute6;
#X obj 707 120 esdf/args.route0 reset pan fader mute dump pan1 fader1
mute1 pan2 fader2 mute2 pan3 fader3 mute3 pan4 fader4 mute4 pan5 fader5
mute5 pan6 fader6 mute6, f 43;
#X obj 1172 11 else/initmess \; \$0-mute.r 1 \; \$0-fader.r 0 \; \$0-pan.r
0 \; \$0-mute1.r 1 \; \$0-fader1.r 0 \; \$0-pan1.r 0 \; \$0-mute2.r
1 \; \$0-fader2.r 0 \; \$0-pan2.r 0 \; \$0-mute3.r 1 \; \$0-fader3.r
0 \; \$0-pan3.r 0 \; \$0-mute4.r 1 \; \$0-fader4.r 0 \; \$0-pan4.r
0 \; \$0-mute5.r 1 \; \$0-fader5.r 0 \; \$0-pan5.r 0 \; \$0-mute6.r
1 \; \$0-fader6.r 0 \; \$0-pan6.r 0 \;;
#X obj 572 216 outlet;
#X connect 0 0 53 0;
#X connect 2 0 3 0;
#X connect 3 0 4 0;
#X connect 5 0 53 0;
#X connect 6 0 5 0;
#X connect 6 0 55 0;
#X connect 7 0 9 0;
#X connect 8 0 10 0;
#X connect 10 0 6 0;
#X connect 10 1 5 0;
#X connect 11 0 31 0;
#X connect 11 1 31 1;
#X connect 12 0 11 0;
#X connect 13 0 11 1;
#X connect 16 0 31 0;
#X connect 16 1 31 1;
#X connect 17 0 16 0;
#X connect 18 0 16 1;
#X connect 19 0 31 0;
#X connect 19 1 31 1;
#X connect 20 0 19 0;
#X connect 21 0 19 1;
#X connect 22 0 31 0;
#X connect 23 0 22 0;
#X connect 24 0 22 1;
#X connect 25 0 31 0;
#X connect 25 1 31 1;
#X connect 26 0 25 0;
#X connect 27 0 25 1;
#X connect 28 0 31 0;
#X connect 28 1 31 1;
#X connect 29 0 28 0;
#X connect 30 0 28 1;
#X connect 31 0 14 0;
#X connect 31 1 15 0;
#X connect 32 0 6 0;
#X connect 33 0 6 0;
#X connect 34 0 6 0;
#X connect 35 0 6 0;
#X connect 36 0 6 0;
#X connect 37 0 6 0;
#X connect 38 0 6 0;
#X connect 39 0 6 0;
#X connect 40 0 6 0;
#X connect 41 0 6 0;
#X connect 42 0 6 0;
#X connect 43 0 6 0;
#X connect 44 0 6 0;
#X connect 45 0 6 0;
#X connect 46 0 6 0;
#X connect 47 0 6 0;
#X connect 48 0 6 0;
#X connect 49 0 6 0;
#X connect 50 0 6 0;
#X connect 51 0 6 0;
#X connect 52 0 6 0;
