#N canvas 170 388 366 167 10;
#X obj 45 57 esdf/mount a;
#X floatatom 45 34 5 0 0 0 - - -;
#X floatatom 241 59 5 0 0 0 - - -;
#X floatatom 45 80 5 0 0 0 - - -;
#X floatatom 186 36 5 0 0 0 - - -;
#X obj 186 58 s a.s;
#X obj 241 36 r a.r;
#X connect 0 0 3 0;
#X connect 1 0 0 0;
#X connect 4 0 5 0;
#X connect 6 0 2 0;
