#N canvas 284 366 450 300 10;
#X obj 26 21 inlet;
#X obj 26 44 t b b;
#X msg 53 69 dump_begin;
#X obj 53 92 outlet;
#X obj 26 142 outlet;
#X msg 26 119 dump;
#X connect 0 0 1 0;
#X connect 1 0 5 0;
#X connect 1 1 2 0;
#X connect 2 0 3 0;
#X connect 5 0 4 0;
