#N canvas 555 315 450 300 10;
#X floatatom 33 32 5 0 0 0 - - -;
#X obj 33 77 print;
#X obj 33 54 esdf/msg.tag asdf;
#X msg 78 19 14 esdf;
#X msg 153 19 13;
#X connect 0 0 2 0;
#X connect 2 0 1 0;
#X connect 3 0 2 0;
#X connect 4 0 2 1;
