#N canvas 420 122 489 481 10;
#X obj 25 8 inlet;
#X msg 65 187 24;
#X msg 75 207 25;
#X msg 85 227 26;
#X msg 95 247 27;
#X msg 105 267 28;
#X msg 115 287 29;
#X msg 125 307 30;
#X msg 135 327 31;
#X msg 25 107 32;
#X msg 35 127 33;
#X msg 45 147 34;
#X msg 55 167 35;
#X obj 25 412 outlet;
#X obj 25 52 zexy/unpack;
#X obj 25 31 list;
#X obj 25 74 sel G# Ab A A# Bb B C C# Db D D# Eb E F F# Gb G;
#X obj 25 389 +;
#X obj 88 364 expr ($f1 - 1) * 12;
#X connect 0 0 15 0;
#X connect 1 0 17 0;
#X connect 2 0 17 0;
#X connect 3 0 17 0;
#X connect 4 0 17 0;
#X connect 5 0 17 0;
#X connect 6 0 17 0;
#X connect 7 0 17 0;
#X connect 8 0 17 0;
#X connect 9 0 17 0;
#X connect 10 0 17 0;
#X connect 11 0 17 0;
#X connect 12 0 17 0;
#X connect 14 0 16 0;
#X connect 14 1 18 0;
#X connect 15 0 14 0;
#X connect 16 0 9 0;
#X connect 16 1 9 0;
#X connect 16 2 10 0;
#X connect 16 3 11 0;
#X connect 16 4 11 0;
#X connect 16 5 12 0;
#X connect 16 6 1 0;
#X connect 16 7 2 0;
#X connect 16 8 2 0;
#X connect 16 9 3 0;
#X connect 16 10 4 0;
#X connect 16 11 4 0;
#X connect 16 12 5 0;
#X connect 16 13 6 0;
#X connect 16 14 7 0;
#X connect 16 15 7 0;
#X connect 16 16 8 0;
#X connect 17 0 13 0;
#X connect 18 0 17 1;
