#N canvas 404 281 644 385 10;
#X obj 25 28 inlet~;
#X obj 25 101 esdf/hilbert~;
#X obj 144 67 inlet~;
#X obj 144 90 esdf/deals02~;
#X obj 25 164 *~;
#X obj 100 164 *~;
#X obj 25 227 +~;
#X obj 25 250 outlet~;
#X connect 0 0 1 0;
#X connect 1 0 4 0;
#X connect 1 1 5 0;
#X connect 2 0 3 0;
#X connect 3 0 4 1;
#X connect 3 1 5 0;
#X connect 4 0 6 0;
#X connect 5 0 6 1;
#X connect 6 0 7 0;
