#N canvas 491 303 620 366 10;
#X obj 28 34 inlet;
#X obj 148 110 list prepend add2;
#X obj 148 133 list trim;
#X obj 121 86 t b a;
#X msg 121 162 addcomma;
#X obj 121 185 outlet;
#X obj 28 57 route dump_begin;
#X msg 28 85 set;
#X obj 72 34 r _global/recall;
#X connect 0 0 6 0;
#X connect 1 0 2 0;
#X connect 2 0 5 0;
#X connect 3 0 4 0;
#X connect 3 1 1 0;
#X connect 4 0 5 0;
#X connect 6 0 7 0;
#X connect 6 1 3 0;
#X connect 7 0 5 0;
#X connect 8 0 5 0;
