#N canvas 540 554 451 303 10;
#X obj 61 27 loadbang;
#X obj 61 50 canvasargs;
#X obj 61 73 drip;
#X msg 61 96 store \$1 0;
#X obj 61 119 coll;
#C restore;
#X obj 231 26 inlet;
#X obj 61 142 list prepend;
#X obj 61 165 list trim;
#X obj 61 188 outlet;
#X obj 195 98 else/router;
#X obj 231 49 t a a;
#X obj 258 74 list length;
#X obj 351 169 list trim;
#X obj 351 146 list prepend store;
#X obj 258 121 route read write;
#X msg 258 147 read \$1;
#X msg 258 173 write \$1;
#X obj 111 188 outlet;
#X obj 161 188 outlet;
#X connect 0 0 1 0;
#X connect 1 0 2 0;
#X connect 2 0 3 0;
#X connect 3 0 4 0;
#X connect 4 0 6 0;
#X connect 4 1 6 1;
#X connect 4 2 17 0;
#X connect 4 3 18 0;
#X connect 5 0 10 0;
#X connect 6 0 7 0;
#X connect 7 0 8 0;
#X connect 9 0 4 0;
#X connect 9 1 14 0;
#X connect 10 0 9 0;
#X connect 10 1 11 0;
#X connect 11 0 9 1;
#X connect 12 0 4 0;
#X connect 13 0 12 0;
#X connect 14 0 15 0;
#X connect 14 1 16 0;
#X connect 14 2 13 0;
#X connect 15 0 4 0;
#X connect 16 0 4 0;
