#N canvas 484 124 357 445 10;
#X obj 67 122 esdf/states freq gain;
#X msg 67 83 freq;
#X msg 106 83 gain;
#X floatatom 147 60 5 0 0 0 - - -;
#X floatatom 206 60 5 0 0 0 - - -;
#X msg 206 83 gain \$1;
#X msg 147 83 freq \$1;
#X msg 27 34 dump;
#X obj 27 57 t a b;
#X msg 54 158 set;
#X obj 67 185 t b a;
#X obj 94 208 list prepend add2;
#X obj 94 231 list trim;
#X msg 67 287 freq 399 \, gain 90 \,;
#X msg 67 263 addcomma;
#X obj 67 310 print E;
#X obj 67 343 route freq gain;
#X obj 192 249 loadbang;
#X connect 0 0 10 0;
#X connect 1 0 0 0;
#X connect 2 0 0 0;
#X connect 3 0 6 0;
#X connect 4 0 5 0;
#X connect 5 0 0 0;
#X connect 6 0 0 0;
#X connect 7 0 8 0;
#X connect 8 0 0 0;
#X connect 8 1 9 0;
#X connect 9 0 13 0;
#X connect 10 0 14 0;
#X connect 10 1 11 0;
#X connect 11 0 12 0;
#X connect 12 0 13 0;
#X connect 13 0 15 0;
#X connect 13 0 16 0;
#X connect 14 0 13 0;
#X connect 16 0 3 0;
#X connect 16 1 4 0;
#X connect 17 0 13 0;
