#N canvas 86 200 853 303 10;
#X obj 36 47 inlet~;
#X obj 84 47 inlet~;
#X obj 37 103 else/balance~, f 16;
#X obj 159 47 r \$0-pan.s;
#X obj 159 70 else/float2sig~ 10;
#X obj 37 186 *~;
#X obj 130 186 *~;
#X obj 159 126 else/float2sig~ 10;
#X obj 159 103 r \$0-sfader.s;
#X obj 37 209 outlet~;
#X obj 130 209 outlet~;
#X obj 747 25 else/initmess \; \$0-mute.r 0 \; \$0-fader.r 0 \; \$0-pan.r
0 \;;
#X obj 666 24 r \$0-mute.s;
#X obj 666 47 == 0;
#X obj 666 70 switch~;
#X obj 387 97 inlet;
#N canvas 117 135 284 155 \$0-gui 0;
#X obj 22 37 hsl 128 8 0 1.2 0 0 \$0-sfader.s \$0-sfader.r fader -4
-8 0 10 -262144 -1 -1 10583 1;
#X obj 22 62 hsl 128 8 -1 1 0 1 \$0-span.s \$0-span.r pan -4 -8 0 10
-262144 -1 -1 6350 1;
#X obj 160 33 nbx 5 12 -1e+37 100 0 0 \$0-fader.s \$0-fader.r empty
0 -8 0 10 -262144 -1 -1 0 256;
#X obj 160 59 nbx 5 12 -1 1 0 0 \$0-pan.s \$0-pan.r empty 0 -8 0 10
-262144 -1 -1 0 256;
#X obj 19 89 nbx 5 12 -1e+37 1e+37 0 0 \$0-lmpeak.s \$0-lmpeak.r max_left
0 -8 0 10 -262144 -1 -1 0 256;
#X obj 98 89 nbx 5 12 -1e+37 1e+37 0 0 \$0-rmpeak.s \$0-rmpeak.r max_right
0 -8 0 10 -262144 -1 -1 0 256;
#X obj 19 119 nbx 5 12 -1e+37 1e+37 0 0 \$0-lpeak.s \$0-lpeak.r left
0 -8 0 10 -262144 -1 -1 -999 256;
#X obj 98 119 nbx 5 12 -1e+37 1e+37 0 0 \$0-rpeak.s \$0-rpeak.r right
0 -8 0 10 -262144 -1 -1 -999 256;
#X obj 159 118 tgl 15 0 \$0-mute.s \$0-mute.r mute 17 7 0 10 -262144
-1 -1 0 1;
#X obj 159 86 bng 15 250 50 0 \$0-reset.s \$0-reset.r reset 17 7 0
10 -262144 -1 -1;
#X obj 228 86 bng 15 250 50 0 \$0-dump.s \$0-dump.r dump 17 7 0 10
-262144 -1 -1;
#X restore 387 169 pd \$0-gui;
#N canvas 0 50 644 189 route 0;
#X obj 27 32 r \$0-sfader.s;
#X obj 27 81 else/lin2db;
#X obj 27 106 change;
#X obj 197 107 s \$0-sfader.r;
#X obj 391 32 r \$0-span.s;
#X obj 391 57 change;
#X obj 526 58 s \$0-span.r;
#X obj 197 55 else/db2lin;
#X obj 27 57 pow 2;
#X obj 197 80 sqrt;
#X obj 197 31 r \$0-fader.s;
#X obj 27 131 s \$0-fader.r;
#X obj 391 82 s \$0-pan.r;
#X obj 526 33 r \$0-pan.s;
#X connect 0 0 8 0;
#X connect 1 0 2 0;
#X connect 2 0 11 0;
#X connect 4 0 5 0;
#X connect 5 0 12 0;
#X connect 7 0 9 0;
#X connect 8 0 1 0;
#X connect 9 0 3 0;
#X connect 10 0 7 0;
#X connect 13 0 6 0;
#X restore 747 93 pd route;
#N canvas 92 436 636 386 meter 0;
#X obj 23 66 inlet~;
#X obj 213 66 inlet~;
#X obj 23 89 peakenv~ 300;
#X obj 213 89 peakenv~ 300;
#X obj 23 112 snapshot~;
#X obj 213 112 snapshot~;
#X obj 23 135 else/lin2db;
#X obj 213 135 else/lin2db;
#X obj 23 158 s \$0-lpeak.r;
#X obj 213 158 s \$0-rpeak.r;
#X obj 23 13 loadbang;
#X obj 23 36 metro 150;
#X obj 53 218 esdf/block.maxpeak~;
#X obj 213 218 esdf/block.maxpeak~;
#X obj 53 241 else/lin2db;
#X obj 213 241 else/lin2db;
#X obj 53 264 s \$0-lmpeak.r;
#X obj 213 264 s \$0-rmpeak.r;
#X obj 164 13 r \$0-reset.s;
#X obj 164 36 t b b;
#X connect 0 0 2 0;
#X connect 0 0 12 0;
#X connect 1 0 3 0;
#X connect 1 0 13 0;
#X connect 2 0 4 0;
#X connect 3 0 5 0;
#X connect 4 0 6 0;
#X connect 5 0 7 0;
#X connect 6 0 8 0;
#X connect 7 0 9 0;
#X connect 10 0 11 0;
#X connect 11 0 5 0;
#X connect 11 0 4 0;
#X connect 12 0 14 0;
#X connect 13 0 15 0;
#X connect 14 0 16 0;
#X connect 15 0 17 0;
#X connect 18 0 19 0;
#X connect 19 0 12 1;
#X connect 19 1 13 1;
#X restore 37 251 pd meter;
#X obj 387 198 else/click;
#X msg 387 221 vis 1;
#X obj 387 244 s pd-\$0-gui;
#X obj 431 97 esdf/mount \$1;
#X obj 431 71 esdf/states;
#X obj 387 120 esdf/args.route0 reset pan fader mute dump;
#X obj 666 120 r _global/dump;
#X obj 431 24 r \$0-dump.s;
#X obj 666 143 s \$0-dump.r;
#X obj 431 47 esdf/msg.dump;
#X obj 545 196 esdf/state.param \$0 fader;
#X obj 545 218 esdf/state.param \$0 pan;
#X obj 545 242 esdf/state.param \$0 mute;
#X obj 228 209 outlet;
#X connect 0 0 2 0;
#X connect 1 0 2 1;
#X connect 2 0 5 0;
#X connect 2 1 6 0;
#X connect 3 0 4 0;
#X connect 4 0 2 2;
#X connect 5 0 9 0;
#X connect 5 0 18 0;
#X connect 6 0 10 0;
#X connect 6 0 18 1;
#X connect 7 0 6 1;
#X connect 7 0 5 1;
#X connect 8 0 7 0;
#X connect 12 0 13 0;
#X connect 13 0 14 0;
#X connect 15 0 24 0;
#X connect 19 0 20 0;
#X connect 20 0 21 0;
#X connect 22 0 24 0;
#X connect 23 0 22 0;
#X connect 23 0 32 0;
#X connect 25 0 27 0;
#X connect 26 0 28 0;
#X connect 28 0 23 0;
#X connect 28 1 22 0;
#X connect 29 0 23 0;
#X connect 30 0 23 0;
#X connect 31 0 23 0;
