#N canvas 266 188 430 210 10;
#X obj 37 43 inlet;
#N canvas 0 429 287 264 \$0-r 1;
#X obj 20 8 inlet;
#X obj 20 94 outlet;
#X restore 37 66 pd \$0-r;
#X obj 37 89 outlet;
#X obj 232 65 canvasargs;
#N canvas 834 215 560 477 \$0-gen 1;
#X obj 37 37 inlet;
#X obj 37 133 spigot;
#X obj 64 84 list length;
#X obj 64 107 >= 1;
#X obj 37 60 t a a;
#X obj 37 156 route 0;
#X obj 76 205 t b a b a;
#X msg 110 257 connect 0 0 2 0;
#X msg 76 311 connect 3 0 1 0;
#X obj 76 334 s pd-\$0-r;
#X obj 76 179 zexy/unpack;
#X msg 127 230 obj 20 40 s \$1.s;
#X msg 93 284 obj 20 60 r \$1.r;
#X connect 0 0 4 0;
#X connect 1 0 5 0;
#X connect 2 0 3 0;
#X connect 3 0 1 1;
#X connect 4 0 1 0;
#X connect 4 1 2 0;
#X connect 5 1 10 0;
#X connect 6 0 8 0;
#X connect 6 1 12 0;
#X connect 6 2 7 0;
#X connect 6 3 11 0;
#X connect 7 0 9 0;
#X connect 8 0 9 0;
#X connect 10 0 6 0;
#X connect 11 0 9 0;
#X connect 12 0 9 0;
#X restore 232 88 pd \$0-gen;
#X obj 232 42 initbang;
#X connect 0 0 1 0;
#X connect 1 0 2 0;
#X connect 3 0 4 0;
#X connect 5 0 3 0;
